<?xml version="1.0" encoding="utf-8"?>
<!-- Generator: Adobe Illustrator 16.0.4, SVG Export Plug-In . SVG Version: 6.00 Build 0)  -->
<!DOCTYPE svg PUBLIC "-//W3C//DTD SVG 1.1//EN" "http://www.w3.org/Graphics/SVG/1.1/DTD/svg11.dtd">
<svg version="1.1" id="Layer_1" xmlns="http://www.w3.org/2000/svg" xmlns:xlink="http://www.w3.org/1999/xlink" x="0px" y="0px"
	 width="777px" height="198px" viewBox="0 0 777 198" enable-background="new 0 0 777 198" xml:space="preserve">
<g>
	<g>
		<path fill="#2B2C2D" d="M209.986,116.84c4.451,0,8.383-2.16,11.795-6.484c2.119-2.685,3.988-6.309,5.615-10.863
			c0.502-1.796,1.027-3.484,1.584-5.05c0.389-1.389,0.768-2.82,1.121-4.342c2.135-9.177,3.201-16.175,3.201-20.992
			c0-5.217-0.939-9.149-2.816-11.795c-1.881-2.644-4.463-3.969-7.746-3.969c-4.27,0-8.129,2.053-11.578,6.159
			c-3.447,4.105-6.277,10.821-8.484,20.143c-2.207,9.324-3.311,16.467-3.311,21.43c0,5.222,0.939,9.151,2.818,11.798
			C204.064,115.518,206.664,116.84,209.986,116.84z"/>
		<polygon fill="#2B2C2D" points="272.91,46.742 269.135,95.93 269.451,95.93 284.338,66.153 294.51,66.153 294.52,66.031 
			294.213,66.031 294.234,65.747 293.93,65.747 293.953,65.463 293.648,65.463 293.67,65.18 293.365,65.18 293.387,64.896 
			293.08,64.896 293.102,64.613 292.797,64.613 292.818,64.33 292.512,64.33 292.533,64.046 292.229,64.046 292.25,63.762 
			291.945,63.762 291.967,63.478 291.662,63.478 291.684,63.195 291.379,63.195 291.4,62.911 291.094,62.911 291.115,62.626 
			290.811,62.626 290.832,62.343 290.527,62.343 290.549,62.06 290.242,62.06 290.264,61.776 289.959,61.776 289.982,61.493 
			289.676,61.493 289.697,61.209 289.393,61.209 289.414,60.925 289.107,60.925 289.129,60.642 288.824,60.642 288.846,60.358 
			288.541,60.358 288.562,60.074 288.258,60.074 288.279,59.791 287.975,59.791 287.996,59.506 287.691,59.506 287.713,59.224 
			287.406,59.224 287.428,58.939 287.123,58.939 287.145,58.656 286.84,58.656 286.861,58.372 286.555,58.372 286.576,58.088 
			286.271,58.088 286.295,57.805 285.988,57.805 286.012,57.521 285.705,57.521 285.727,57.237 285.42,57.237 285.441,56.954 
			285.139,56.954 285.16,56.67 284.854,56.67 284.875,56.387 284.568,56.387 284.592,56.104 284.287,56.104 284.309,55.819 
			284.004,55.819 284.025,55.536 283.719,55.536 283.74,55.251 283.436,55.251 283.457,54.968 283.152,54.968 283.174,54.685 
			282.867,54.685 282.889,54.4 282.584,54.4 282.605,54.117 282.301,54.117 282.322,53.833 282.018,53.833 282.039,53.55 
			281.734,53.55 281.756,53.267 281.451,53.267 281.473,52.983 281.166,52.983 281.188,52.699 280.881,52.699 280.902,52.416 
			280.6,52.416 280.621,52.132 280.316,52.132 280.338,51.848 280.031,51.848 280.053,51.564 279.748,51.564 279.77,51.281 
			279.465,51.281 279.486,50.998 279.18,50.998 279.201,50.714 278.896,50.714 278.918,50.43 278.613,50.43 278.635,50.146 
			278.33,50.146 278.352,49.862 278.047,49.862 278.068,49.579 277.762,49.579 277.783,49.294 277.479,49.294 277.5,49.011 
			277.195,49.011 277.217,48.729 276.91,48.729 276.932,48.444 276.627,48.444 276.65,48.161 276.344,48.161 276.365,47.877 
			276.061,47.877 276.082,47.594 275.777,47.594 275.799,47.309 275.492,47.309 275.514,47.026 275.209,47.026 275.23,46.742 		"/>
		<path fill="#2B2C2D" d="M159.521,56.273c-1.204-0.603-4.411-0.903-9.626-0.903h-5.25l-5.264,26.329h3.008
			c3.794,0,7.231-0.756,10.316-2.271c3.082-1.514,5.573-3.867,7.47-7.062c1.897-3.191,2.847-6.303,2.847-9.333
			c0-1.604-0.285-2.983-0.85-4.132C161.61,57.751,160.725,56.875,159.521,56.273z"/>
		<polygon fill="#2B2C2D" points="295.031,66.599 297.203,97.462 297.299,97.462 304.535,75.745 304.531,75.683 304.266,75.683 
			304.246,75.4 303.984,75.4 303.963,75.117 303.701,75.117 303.68,74.833 303.418,74.833 303.396,74.549 303.133,74.549 
			303.113,74.266 302.848,74.266 302.828,73.982 302.566,73.982 302.547,73.699 302.281,73.699 302.262,73.415 301.998,73.415 
			301.977,73.131 301.715,73.131 301.693,72.847 301.432,72.847 301.41,72.564 301.146,72.564 301.127,72.279 300.863,72.279 
			300.844,71.996 300.58,71.996 300.561,71.712 300.295,71.712 300.275,71.429 300.014,71.429 299.992,71.146 299.729,71.146 
			299.709,70.862 299.445,70.862 299.426,70.578 299.162,70.578 299.143,70.294 298.877,70.294 298.857,70.011 298.594,70.011 
			298.574,69.727 298.311,69.727 298.289,69.443 298.027,69.443 298.006,69.16 297.744,69.16 297.723,68.876 297.459,68.876 
			297.439,68.593 297.176,68.593 297.156,68.309 296.789,68.309 296.789,68.3 296.484,68.3 296.506,68.017 296.199,68.017 
			296.221,67.733 295.916,67.733 295.938,67.45 295.633,67.45 295.654,67.166 295.35,67.166 295.371,66.883 295.066,66.883 
			295.088,66.599 		"/>
		<path fill="#2B2C2D" d="M120.444,46.663l-2.31,11.494c-7.772-3.208-14.305-4.812-19.596-4.812c-5.474,0-10.528,1.522-15.162,4.568
			c-4.633,3.045-8.585,8.128-11.85,15.257c-3.266,7.129-4.897,14.118-4.897,20.973c0,6.601,1.749,11.907,5.253,15.917
			c3.5,4.011,8.168,6.015,14.007,6.015c1.444,0,2.953-0.106,4.516-0.303c0.297-6.186,1.901-12.48,4.835-18.887
			c3.266-7.128,7.217-12.212,11.851-15.256c4.634-3.046,9.688-4.568,15.163-4.568c0.599,0,1.222,0.031,1.854,0.073l4.746-23.735
			c-0.006-0.001-0.012-0.002-0.019-0.004l0.043-0.209c-0.106-0.028-0.22-0.046-0.326-0.074l0.042-0.209
			c-0.105-0.028-0.219-0.046-0.325-0.074l0.042-0.21c-0.105-0.028-0.22-0.046-0.325-0.074l0.042-0.208
			c-0.106-0.028-0.22-0.046-0.326-0.074l0.042-0.21c-0.105-0.028-0.219-0.046-0.325-0.074l0.042-0.209
			c-0.105-0.028-0.22-0.046-0.325-0.074l0.042-0.209c-0.107-0.028-0.221-0.046-0.327-0.074l0.041-0.21
			c-0.105-0.028-0.219-0.047-0.324-0.075l0.041-0.208c-0.105-0.028-0.219-0.046-0.324-0.074l0.042-0.21
			c-0.106-0.028-0.22-0.046-0.326-0.074l0.042-0.208c-0.106-0.029-0.219-0.046-0.326-0.074l0.043-0.21
			c-0.106-0.028-0.221-0.046-0.327-0.074l0.043-0.21c-0.106-0.028-0.22-0.046-0.326-0.075l0.042-0.208
			c-0.106-0.028-0.219-0.046-0.325-0.074l0.042-0.209c-0.105-0.029-0.22-0.047-0.325-0.075l0.041-0.208
			c-0.105-0.029-0.219-0.046-0.325-0.074l0.043-0.21c-0.106-0.028-0.22-0.046-0.326-0.074l0.042-0.208
			c-0.106-0.028-0.219-0.046-0.326-0.074l0.043-0.21c-0.106-0.029-0.22-0.046-0.326-0.074l0.042-0.209
			c-0.106-0.029-0.22-0.046-0.327-0.075l0.043-0.209c-0.106-0.028-0.219-0.046-0.325-0.074l0.042-0.208
			C122.115,47.011,121.27,46.85,120.444,46.663z"/>
		<path fill="#2B2C2D" d="M396.447,110.748c-0.109-0.115-0.227-0.23-0.34-0.345c-0.086-0.093-0.184-0.183-0.273-0.274
			c-0.092-0.096-0.193-0.191-0.287-0.288c-0.094-0.099-0.197-0.195-0.293-0.293c-0.086-0.09-0.182-0.179-0.27-0.269
			c-0.1-0.104-0.205-0.205-0.307-0.308c-0.082-0.087-0.178-0.174-0.262-0.261c-0.09-0.096-0.191-0.189-0.283-0.285
			c-0.098-0.102-0.205-0.202-0.303-0.305c-0.086-0.087-0.18-0.174-0.266-0.262c-0.092-0.097-0.195-0.192-0.289-0.29
			c-0.092-0.096-0.193-0.19-0.287-0.288c-0.088-0.091-0.186-0.182-0.273-0.272c-0.098-0.102-0.201-0.201-0.301-0.302
			c-0.086-0.09-0.184-0.18-0.271-0.27c-0.09-0.094-0.188-0.187-0.279-0.279c-0.094-0.101-0.199-0.199-0.299-0.299
			c-0.168-0.178-0.352-0.352-0.529-0.528c-0.105-0.11-0.219-0.222-0.328-0.331c-0.09-0.093-0.188-0.184-0.277-0.275
			c-0.08-0.084-0.17-0.167-0.25-0.25c-0.193-0.202-0.4-0.402-0.604-0.604c-0.084-0.09-0.178-0.178-0.268-0.266
			c-0.09-0.096-0.189-0.189-0.283-0.284c-0.096-0.102-0.201-0.201-0.299-0.303c-0.088-0.089-0.184-0.178-0.27-0.268
			c-0.092-0.095-0.189-0.188-0.283-0.282c-0.096-0.102-0.201-0.2-0.299-0.3c-0.086-0.091-0.182-0.181-0.27-0.271
			c-0.096-0.099-0.199-0.196-0.297-0.295c-0.086-0.091-0.182-0.18-0.271-0.271c-0.094-0.098-0.197-0.195-0.293-0.293
			c-0.086-0.091-0.184-0.182-0.273-0.273c-0.092-0.095-0.191-0.189-0.285-0.285c-0.094-0.1-0.199-0.199-0.297-0.297
			c-0.084-0.089-0.18-0.178-0.268-0.266c-0.092-0.098-0.193-0.194-0.289-0.291c-0.092-0.096-0.193-0.192-0.287-0.288
			c-0.088-0.092-0.186-0.183-0.275-0.275c-0.094-0.098-0.197-0.194-0.291-0.292c-0.09-0.094-0.189-0.187-0.281-0.28
			c-0.09-0.095-0.189-0.188-0.281-0.283c-0.09-0.094-0.189-0.187-0.281-0.281c-0.094-0.099-0.199-0.197-0.295-0.295
			c-0.088-0.092-0.186-0.183-0.277-0.275c-0.086-0.091-0.182-0.182-0.271-0.273c-0.098-0.103-0.205-0.205-0.307-0.307
			c-0.092-0.096-0.193-0.191-0.287-0.288c-0.082-0.085-0.176-0.17-0.258-0.255c-0.092-0.098-0.193-0.193-0.289-0.29
			c-0.096-0.102-0.201-0.201-0.301-0.302c-0.086-0.09-0.182-0.179-0.27-0.269c-0.092-0.095-0.191-0.19-0.285-0.285
			c-0.094-0.098-0.197-0.196-0.293-0.294c-0.086-0.091-0.184-0.18-0.271-0.27c-0.094-0.099-0.197-0.197-0.295-0.295
			c-0.086-0.09-0.182-0.18-0.271-0.271c-0.09-0.096-0.191-0.191-0.283-0.286c-0.096-0.099-0.199-0.196-0.295-0.294
			c-0.09-0.093-0.188-0.186-0.277-0.279c-0.092-0.095-0.193-0.188-0.283-0.283c-0.09-0.093-0.188-0.185-0.279-0.277
			c-0.094-0.1-0.199-0.2-0.297-0.299c-0.092-0.095-0.191-0.188-0.285-0.283c-0.084-0.089-0.178-0.178-0.268-0.267
			c-0.098-0.103-0.203-0.204-0.305-0.306c-0.084-0.088-0.178-0.176-0.266-0.266c-0.09-0.094-0.188-0.188-0.281-0.281
			c-0.09-0.095-0.189-0.189-0.283-0.284c-0.098-0.102-0.203-0.204-0.305-0.306c-0.086-0.091-0.186-0.182-0.273-0.273
			c-0.09-0.093-0.188-0.185-0.279-0.278c-0.365-0.383-0.752-0.766-1.156-1.146c-0.199-0.193-0.424-0.384-0.633-0.576
			c0.102,0.115,0.213,0.229,0.312,0.344c2.48,2.919,3.721,6.514,3.721,10.783c0,4.927-1.545,9.671-4.627,14.231
			c-3.086,4.564-7.365,8.084-12.842,10.564c-5.475,2.482-12.594,3.723-21.352,3.723c-7.229,0-15.061-0.893-23.49-2.683l2.682-13.574
			c5.32,2.351,10.486,3.885,15.506,4.642l8.428-25.301c0.035,0.034,0.076,0.067,0.109,0.101c0.096,0.095,0.186,0.19,0.287,0.286
			c0.092,0.092,0.18,0.184,0.275,0.276c0.098,0.097,0.191,0.195,0.293,0.293c0.092,0.093,0.182,0.185,0.277,0.278
			c0.096,0.096,0.188,0.191,0.287,0.288c0.094,0.094,0.184,0.186,0.281,0.28c0.096,0.096,0.188,0.192,0.289,0.29
			c0.092,0.092,0.18,0.183,0.275,0.275c0.096,0.096,0.188,0.19,0.285,0.287c0.096,0.096,0.189,0.191,0.289,0.288
			c0.092,0.093,0.182,0.184,0.277,0.277c0.094,0.095,0.186,0.19,0.285,0.286c0.096,0.096,0.189,0.191,0.287,0.288
			c0.094,0.094,0.184,0.187,0.281,0.281c0.094,0.093,0.184,0.186,0.279,0.279c0.098,0.097,0.191,0.194,0.293,0.292
			c0.096,0.096,0.188,0.191,0.289,0.288c0.09,0.089,0.174,0.179,0.268,0.268c0.098,0.096,0.188,0.192,0.289,0.29
			c0.096,0.096,0.188,0.191,0.287,0.288c0.094,0.094,0.184,0.187,0.281,0.281c0.094,0.093,0.182,0.185,0.277,0.278
			c0.096,0.097,0.189,0.193,0.291,0.291c0.094,0.094,0.184,0.188,0.283,0.283c0.092,0.094,0.182,0.187,0.279,0.281
			c0.098,0.097,0.191,0.192,0.291,0.29c0.094,0.093,0.182,0.184,0.277,0.277c0.094,0.095,0.184,0.188,0.283,0.283
			c0.098,0.098,0.191,0.195,0.293,0.293c0.094,0.093,0.184,0.186,0.281,0.279c0.09,0.093,0.18,0.185,0.277,0.279
			c0.094,0.096,0.186,0.19,0.285,0.286c0.096,0.096,0.188,0.191,0.287,0.287c0.094,0.094,0.184,0.187,0.279,0.28
			c0.094,0.093,0.184,0.186,0.281,0.28c0.098,0.098,0.193,0.196,0.295,0.294c0.092,0.092,0.18,0.183,0.273,0.275
			c0.094,0.092,0.182,0.184,0.279,0.277c0.1,0.1,0.195,0.2,0.301,0.301c0.09,0.091,0.178,0.18,0.27,0.271
			c0.096,0.095,0.188,0.19,0.287,0.286c0.096,0.096,0.188,0.191,0.289,0.289c0.092,0.094,0.182,0.186,0.277,0.279
			c0.096,0.096,0.188,0.189,0.287,0.285c0.094,0.095,0.184,0.188,0.281,0.281c1.129,1.133,2.588,2.32,4.336,3.559
			c0.586-1.291,0.916-2.596,0.916-3.919c0-1.204-0.328-2.463-0.984-3.777c-0.695-1.314-2.885-3.12-6.57-5.419l-13.465-8.21
			c-5.363-3.284-8.777-6.229-10.234-8.84c-1.463-2.608-2.191-5.446-2.191-8.512c0-5.845,2.277-11.189,6.809-16.036h-0.287
			l0.094-0.284h-0.377l0.094-0.284h-0.379l0.094-0.284h-0.377l0.094-0.284h-0.377l0.094-0.283h-0.379l0.096-0.284h-0.379
			l0.096-0.284h-0.379l0.096-0.284h-0.379l0.094-0.284h-0.377l0.094-0.283h-0.379l0.094-0.285h-0.377l0.094-0.284h-0.379
			l0.096-0.282h-0.379l0.096-0.285h-0.377l0.094-0.283H328.9l0.094-0.283h-0.379l0.094-0.284h-0.377l0.094-0.285h-0.379l0.096-0.283
			h-0.379l0.096-0.284h-2.873l-26.268,78.855h-12.152l-2.736-38.864h-0.109l-19.432,38.864h-11.062l4.262-62.36
			c-0.037-0.034-0.068-0.068-0.104-0.102c-0.092-0.095-0.188-0.188-0.281-0.28c-0.092-0.097-0.188-0.192-0.285-0.286
			c-0.092-0.096-0.188-0.19-0.283-0.284c-0.094-0.096-0.188-0.19-0.283-0.284c-0.094-0.095-0.188-0.189-0.281-0.282
			c-0.096-0.097-0.191-0.192-0.287-0.286c-0.092-0.095-0.188-0.189-0.283-0.283c-0.092-0.096-0.188-0.19-0.283-0.284
			c-0.094-0.096-0.188-0.19-0.283-0.284c-0.096-0.097-0.191-0.192-0.287-0.286c-0.092-0.094-0.186-0.188-0.279-0.279
			c-0.094-0.096-0.189-0.192-0.285-0.285c-0.094-0.097-0.189-0.191-0.285-0.285c-0.092-0.095-0.188-0.189-0.281-0.283
			c-0.094-0.096-0.189-0.19-0.285-0.283c-0.092-0.097-0.188-0.192-0.283-0.286c-0.094-0.096-0.188-0.19-0.283-0.283
			c-0.096-0.097-0.191-0.192-0.287-0.286c-0.092-0.094-0.184-0.187-0.277-0.278c-0.096-0.099-0.193-0.196-0.293-0.292
			c-0.09-0.093-0.182-0.186-0.277-0.277c-0.092-0.095-0.188-0.19-0.283-0.283c-0.094-0.097-0.189-0.193-0.289-0.289
			c-0.09-0.093-0.18-0.184-0.273-0.274c-0.096-0.099-0.193-0.196-0.291-0.292c-0.092-0.095-0.186-0.188-0.279-0.279
			c-0.096-0.098-0.191-0.193-0.289-0.289c-0.092-0.094-0.186-0.188-0.281-0.281c-0.094-0.097-0.188-0.192-0.285-0.286
			c-0.092-0.094-0.184-0.187-0.279-0.279c-0.094-0.097-0.189-0.193-0.287-0.288c-0.094-0.097-0.189-0.191-0.285-0.285
			c-0.092-0.094-0.186-0.187-0.279-0.278c-0.094-0.098-0.191-0.193-0.287-0.288c-0.092-0.095-0.186-0.188-0.279-0.279
			c-0.094-0.097-0.189-0.192-0.285-0.286c-0.094-0.097-0.191-0.193-0.287-0.287c-0.094-0.095-0.186-0.188-0.281-0.28
			c-0.094-0.097-0.189-0.191-0.285-0.286c-0.092-0.095-0.186-0.188-0.281-0.281c-0.094-0.096-0.188-0.191-0.283-0.285
			c-0.094-0.097-0.189-0.192-0.285-0.286c-0.094-0.095-0.188-0.189-0.283-0.282c-0.42-0.431-0.879-0.826-1.348-1.213
			c0.215,0.259,0.455,0.495,0.656,0.768c3.889,5.289,5.828,11.743,5.828,19.364c0,9.081-1.643,18.243-4.926,27.489
			c-3.285,9.245-8.102,16.601-14.451,22.071c-6.348,5.473-14.195,8.205-23.535,8.205c-6.977,0-12.43-1.716-16.412-5.09
			c0.426,0.499,0.852,0.996,1.32,1.445c0.094,0.095,0.188,0.191,0.285,0.284c0.094,0.095,0.186,0.19,0.281,0.282
			c0.098,0.096,0.189,0.193,0.287,0.287c0.094,0.094,0.186,0.19,0.281,0.281c0.096,0.095,0.188,0.191,0.283,0.283
			c0.096,0.095,0.188,0.191,0.283,0.283c0.096,0.094,0.188,0.191,0.283,0.283c0.096,0.096,0.189,0.192,0.285,0.285
			c0.096,0.096,0.189,0.193,0.287,0.285c0.092,0.094,0.184,0.189,0.277,0.28c0.098,0.097,0.191,0.194,0.291,0.289
			c0.092,0.093,0.184,0.188,0.277,0.278c0.096,0.096,0.189,0.193,0.287,0.287c0.094,0.094,0.188,0.191,0.285,0.284
			c0.094,0.095,0.188,0.19,0.283,0.282c0.094,0.094,0.184,0.189,0.279,0.281c0.096,0.096,0.189,0.193,0.287,0.286
			c0.094,0.095,0.186,0.191,0.283,0.284c0.096,0.094,0.188,0.191,0.285,0.285c0.094,0.093,0.186,0.188,0.279,0.28
			c0.096,0.095,0.189,0.192,0.287,0.285c0.094,0.095,0.186,0.19,0.281,0.282c0.096,0.096,0.188,0.193,0.285,0.285
			c0.096,0.095,0.188,0.191,0.283,0.284c0.096,0.095,0.189,0.192,0.287,0.284c0.092,0.094,0.184,0.188,0.279,0.279
			c0.094,0.095,0.186,0.192,0.281,0.284c0.098,0.095,0.189,0.193,0.287,0.286c0.096,0.096,0.189,0.192,0.285,0.285
			c0.094,0.094,0.188,0.189,0.283,0.281c0.094,0.095,0.186,0.191,0.283,0.283c0.094,0.096,0.186,0.192,0.283,0.284
			c0.094,0.094,0.186,0.19,0.281,0.282c0.096,0.096,0.189,0.194,0.289,0.288c0.094,0.095,0.186,0.19,0.281,0.281
			c0.094,0.095,0.186,0.19,0.281,0.282c0.096,0.096,0.189,0.193,0.287,0.285c0.094,0.095,0.186,0.191,0.281,0.283
			c0.096,0.095,0.188,0.191,0.283,0.283c0.096,0.096,0.189,0.193,0.287,0.286c0.092,0.093,0.182,0.187,0.275,0.276
			c0.098,0.098,0.193,0.197,0.293,0.293c0.094,0.094,0.186,0.19,0.281,0.281c0.096,0.095,0.188,0.19,0.283,0.283
			c0.094,0.094,0.186,0.189,0.283,0.281c0.094,0.095,0.186,0.191,0.281,0.283c0.096,0.096,0.189,0.193,0.287,0.287
			c0.096,0.096,0.188,0.191,0.285,0.284c0.094,0.093,0.184,0.189,0.279,0.28c0.096,0.095,0.188,0.191,0.285,0.284
			c0.096,0.097,0.189,0.194,0.287,0.288c0.092,0.092,0.184,0.186,0.275,0.275c0.098,0.097,0.191,0.195,0.291,0.29
			c0.094,0.094,0.186,0.189,0.281,0.282c0.094,0.094,0.188,0.191,0.283,0.283c0.096,0.096,0.189,0.193,0.285,0.285
			c0.094,0.094,0.186,0.189,0.281,0.28c0.096,0.097,0.189,0.194,0.287,0.288c0.094,0.094,0.184,0.188,0.279,0.279
			c0.096,0.096,0.191,0.194,0.289,0.288c0.094,0.094,0.186,0.189,0.281,0.282c0.094,0.094,0.188,0.19,0.283,0.282
			c0.094,0.095,0.188,0.191,0.283,0.283c0.094,0.095,0.188,0.192,0.283,0.284c0.096,0.096,0.191,0.193,0.289,0.288
			c0.092,0.093,0.182,0.187,0.277,0.276c0.096,0.097,0.189,0.195,0.289,0.289c0.092,0.093,0.184,0.188,0.277,0.279
			c0.096,0.096,0.189,0.192,0.285,0.285c0.096,0.096,0.189,0.191,0.285,0.285c0.094,0.094,0.188,0.19,0.283,0.283
			c0.096,0.096,0.189,0.193,0.287,0.287c0.094,0.092,0.184,0.188,0.279,0.277c0.096,0.096,0.188,0.193,0.285,0.287
			c0.094,0.094,0.186,0.19,0.283,0.283c4.049,4.05,9.887,6.083,17.529,6.083c9.342,0,17.186-2.733,23.535-8.204
			c2.863-2.467,5.398-5.338,7.637-8.571h0.193l-0.018,0.283h0.303l-0.018,0.284h0.303l-0.02,0.283h0.301l-0.02,0.283h0.305
			l-0.02,0.283h0.303l-0.02,0.285h0.305l-0.02,0.282h0.303l-0.02,0.284h0.303l-0.018,0.283h0.303l-0.021,0.285h0.303l-0.02,0.283
			h0.305l-0.02,0.283h0.303l-0.02,0.283h0.301l-0.018,0.284h0.303l-0.018,0.284h0.303l-0.02,0.283h0.305l-0.021,0.283h0.305
			l-0.021,0.285h0.303l-0.02,0.283h0.305l-0.02,0.283h0.303l-0.02,0.284h0.303l-0.018,0.282h0.303l-0.02,0.283h0.303l-0.021,0.285
			h0.305l-0.02,0.283h0.303l-0.02,0.283h0.303l-0.02,0.284h0.303l-0.018,0.284h0.303l-0.02,0.283h0.305l-0.021,0.283h0.305
			l-0.021,0.285h0.305l-0.021,0.283h0.303l-0.02,0.283h0.305l-0.02,0.284h0.303l-0.018,0.283h0.303l-0.02,0.284h0.301l-0.018,0.283
			h0.303l-0.02,0.283h0.303l-0.02,0.283h0.305l-0.02,0.285h0.301l-0.018,0.283h0.303l-0.02,0.283h0.301l-0.018,0.283h0.303
			l-0.02,0.284h0.305l-0.021,0.284h0.305l-0.02,0.283h0.301l-0.018,0.283h0.303l-0.018,0.284h0.303l-0.02,0.284h0.301l-0.018,0.283
			h0.305l-0.021,0.284h0.305l-0.021,0.283h11.061l7.51-15.019l0.018,0.269h0.266l0.02,0.283h0.264l0.02,0.284h0.264l0.02,0.283
			h0.264l0.021,0.283h0.262l0.021,0.283h0.262l0.021,0.285h0.264l0.02,0.282h0.264l0.02,0.284h0.266l0.02,0.283h0.264l0.02,0.285
			h0.262l0.021,0.283h0.262l0.021,0.283h0.264l0.02,0.283h0.266l0.02,0.284h0.264l0.02,0.284h0.264l0.02,0.283h0.264l0.021,0.283
			h0.262l0.021,0.285h0.262l0.021,0.283h0.264l0.02,0.283h0.264l0.02,0.284h0.266l0.02,0.282h0.264l0.02,0.283h0.264l0.021,0.285
			h0.26l0.021,0.283h0.264l0.021,0.283h0.264l0.02,0.284h0.264l0.02,0.284h0.264l0.02,0.283h0.266l0.02,0.283h0.262l0.021,0.285
			h0.262l0.021,0.283h0.264l0.02,0.283h0.264l0.02,0.284h0.264l0.02,0.283h0.266l0.02,0.284h0.264l0.02,0.283h0.264l0.02,0.283
			h0.264l0.021,0.283h0.262l0.021,0.285h0.264l0.02,0.283h0.264l0.02,0.283h0.266l0.02,0.283h0.264l0.02,0.284h0.262l0.021,0.284
			h0.264l0.02,0.283h0.264l0.02,0.283h0.264l0.02,0.284h0.266l0.02,0.284h0.264l0.02,0.283h0.264l0.021,0.284h0.262l0.021,0.283
			h12.15l4.363-13.096c0.035,0.007,0.068,0.012,0.102,0.02l-0.043,0.223c0.111,0.022,0.217,0.038,0.328,0.062l-0.043,0.222
			c0.111,0.024,0.215,0.038,0.326,0.062l-0.043,0.221c0.111,0.023,0.215,0.039,0.326,0.062l-0.045,0.223
			c0.111,0.023,0.217,0.039,0.328,0.062l-0.043,0.221c0.111,0.023,0.217,0.039,0.328,0.062l-0.043,0.221
			c0.111,0.024,0.217,0.039,0.326,0.062l-0.043,0.223c0.111,0.022,0.217,0.038,0.326,0.061l-0.043,0.222
			c0.111,0.024,0.217,0.039,0.328,0.062l-0.045,0.223c0.111,0.023,0.217,0.039,0.328,0.062l-0.045,0.222
			c0.111,0.023,0.217,0.039,0.328,0.062l-0.045,0.222c0.111,0.024,0.217,0.038,0.328,0.062l-0.043,0.223
			c0.111,0.023,0.217,0.039,0.326,0.062l-0.043,0.222c0.111,0.023,0.217,0.038,0.328,0.062l-0.043,0.222
			c0.111,0.024,0.217,0.039,0.326,0.062l-0.043,0.222c0.111,0.022,0.217,0.038,0.326,0.062l-0.043,0.222
			c0.111,0.022,0.215,0.038,0.326,0.062l-0.043,0.223c0.111,0.023,0.215,0.038,0.326,0.062l-0.043,0.222
			c0.111,0.023,0.217,0.039,0.326,0.062l-0.043,0.222c0.111,0.024,0.217,0.038,0.328,0.062l-0.043,0.223
			c0.111,0.022,0.217,0.038,0.326,0.062l-0.043,0.222c0.111,0.023,0.217,0.038,0.328,0.061l-0.043,0.223
			c0.111,0.023,0.215,0.039,0.326,0.062l-0.045,0.221c0.111,0.023,0.217,0.039,0.328,0.062l-0.045,0.221
			c0.111,0.024,0.217,0.039,0.328,0.062l-0.043,0.223c0.111,0.023,0.217,0.039,0.326,0.062l-0.043,0.221
			c0.111,0.024,0.217,0.039,0.328,0.062l-0.043,0.221c0.111,0.024,0.217,0.039,0.326,0.062l-0.043,0.222
			c0.111,0.023,0.217,0.038,0.326,0.062l-0.043,0.222c0.111,0.024,0.217,0.038,0.328,0.062l-0.045,0.223
			c0.111,0.023,0.217,0.038,0.326,0.062l-0.043,0.222c0.111,0.024,0.217,0.039,0.328,0.062l-0.043,0.221
			c0.111,0.023,0.217,0.039,0.326,0.062l-0.043,0.223c0.111,0.023,0.217,0.038,0.326,0.062l-0.043,0.222
			c0.111,0.023,0.217,0.039,0.326,0.062l-0.043,0.221c0.111,0.023,0.217,0.039,0.328,0.062l-0.043,0.221
			c0.111,0.023,0.215,0.039,0.326,0.062l-0.045,0.223c0.111,0.023,0.217,0.038,0.328,0.062l-0.043,0.221
			c0.111,0.024,0.217,0.039,0.326,0.062l-0.043,0.223c0.111,0.023,0.217,0.039,0.326,0.062l-0.043,0.222
			c0.111,0.023,0.217,0.039,0.328,0.062l-0.043,0.223c0.111,0.023,0.217,0.039,0.326,0.062l-0.043,0.223
			c0.111,0.023,0.217,0.039,0.328,0.062l-0.045,0.222c0.111,0.023,0.217,0.039,0.328,0.062l-0.045,0.222
			c8.43,1.789,16.262,2.683,23.49,2.683c8.758,0,15.879-1.241,21.354-3.723c5.477-2.479,9.756-6,12.842-10.563
			c3.08-4.561,4.627-9.307,4.627-14.232c0-4.27-1.244-7.861-3.723-10.783C397.27,111.604,396.865,111.176,396.447,110.748z"/>
		<path fill="#2B2C2D" d="M406.953,68.883l0.041-0.21c-0.107-0.028-0.219-0.045-0.324-0.072l0.041-0.21
			c-0.107-0.028-0.219-0.046-0.324-0.074l0.041-0.211c-0.105-0.028-0.219-0.046-0.326-0.074l0.041-0.209
			c-0.105-0.028-0.217-0.045-0.324-0.073l0.043-0.21c-0.107-0.028-0.219-0.046-0.326-0.074l0.043-0.209
			c-0.107-0.028-0.221-0.045-0.328-0.073l0.043-0.211c-0.107-0.028-0.219-0.045-0.324-0.073l0.041-0.21
			c-0.107-0.028-0.219-0.045-0.324-0.073l0.041-0.21c-0.107-0.028-0.219-0.045-0.326-0.073l0.041-0.21
			c-0.105-0.028-0.217-0.045-0.324-0.073l0.041-0.211c-0.105-0.028-0.217-0.045-0.324-0.072l0.041-0.21
			c-0.105-0.028-0.219-0.046-0.326-0.074l0.043-0.21c-0.107-0.028-0.221-0.045-0.326-0.073l0.041-0.209
			c-0.107-0.028-0.219-0.046-0.324-0.074l0.041-0.211c-0.107-0.028-0.219-0.046-0.324-0.074l0.041-0.209
			c-0.107-0.028-0.219-0.045-0.326-0.073l0.041-0.21c-0.105-0.028-0.217-0.046-0.324-0.073l0.041-0.21
			c-0.105-0.028-0.217-0.045-0.324-0.073l0.043-0.211c-0.107-0.028-0.221-0.045-0.328-0.073l0.043-0.21
			c-0.107-0.028-0.219-0.045-0.326-0.073l0.043-0.21c-0.107-0.028-0.219-0.045-0.324-0.073l0.041-0.21
			c-0.107-0.028-0.221-0.046-0.326-0.074l0.041-0.21c-0.105-0.028-0.217-0.046-0.324-0.074l0.041-0.21
			c-0.105-0.028-0.217-0.045-0.324-0.073l0.041-0.21c-0.105-0.028-0.219-0.045-0.326-0.073l0.043-0.209
			c-0.107-0.028-0.221-0.046-0.326-0.074l0.041-0.211c-0.105-0.028-0.219-0.046-0.324-0.073l0.043-0.21
			c-0.107-0.028-0.221-0.045-0.326-0.073l0.041-0.21c-0.107-0.028-0.219-0.046-0.326-0.074l0.041-0.21
			c-0.105-0.028-0.217-0.046-0.324-0.074l0.041-0.21c-0.105-0.028-0.217-0.045-0.324-0.073l0.041-0.21
			c-0.105-0.028-0.219-0.046-0.326-0.074l0.043-0.209c-0.107-0.028-0.219-0.045-0.326-0.073l0.043-0.21
			c-0.107-0.028-0.219-0.045-0.326-0.073l0.043-0.211c-0.107-0.028-0.221-0.046-0.326-0.074l0.041-0.209
			c-0.107-0.028-0.219-0.046-0.324-0.074l0.041-0.21c-0.105-0.028-0.217-0.046-0.324-0.074l0.041-0.21
			c-0.105-0.028-0.219-0.045-0.326-0.073l0.043-0.21c-0.107-0.028-0.219-0.045-0.326-0.073l0.043-0.211
			c-0.107-0.028-0.219-0.046-0.326-0.073l0.043-0.21c-0.107-0.028-0.221-0.046-0.326-0.074l0.041-0.211
			c-0.107-0.028-0.219-0.045-0.324-0.073l0.041-0.21c-0.107-0.028-0.219-0.045-0.324-0.073l0.041-0.21
			c-0.107-0.028-0.219-0.046-0.326-0.074l0.041-0.209c-0.105-0.028-0.219-0.045-0.326-0.073l0.043-0.21
			c-0.107-0.028-0.219-0.046-0.326-0.073l0.043-0.21c-0.107-0.028-0.219-0.045-0.326-0.073l0.043-0.211
			c-0.107-0.028-0.221-0.045-0.326-0.073l0.041-0.209c-0.107-0.028-0.219-0.046-0.324-0.074l0.041-0.211
			c-0.107-0.028-0.219-0.046-0.324-0.073l0.041-0.21c-0.105-0.028-0.219-0.046-0.326-0.074l0.041-0.21
			c-0.105-0.028-0.217-0.046-0.324-0.074l0.043-0.209c-0.107-0.028-0.219-0.046-0.326-0.074l0.043-0.21
			c-0.107-0.028-0.221-0.046-0.326-0.074l0.041-0.209c-0.107-0.028-0.219-0.046-0.324-0.074l0.041-0.211
			c-0.107-0.028-0.219-0.045-0.324-0.073l0.041-0.21c-0.107-0.028-0.219-0.045-0.326-0.073l0.041-0.21
			c-0.105-0.028-0.219-0.046-0.326-0.073l0.043-0.21c-0.107-0.028-0.219-0.046-0.326-0.074l0.043-0.21
			c-0.107-0.028-0.219-0.045-0.326-0.073l0.043-0.209c-0.107-0.028-0.221-0.046-0.326-0.074l0.041-0.211
			c-0.107-0.028-0.219-0.046-0.324-0.074l0.041-0.209c-0.107-0.028-0.219-0.045-0.324-0.073l0.041-0.21
			c-0.107-0.028-0.219-0.046-0.326-0.074l0.041-0.209c-0.105-0.028-0.217-0.046-0.324-0.073l0.041-0.21
			c-0.105-0.028-0.219-0.046-0.326-0.074l0.043-0.21c-0.107-0.028-0.219-0.045-0.326-0.073l0.043-0.21
			c-0.107-0.028-0.219-0.045-0.324-0.073l0.041-0.21c-0.107-0.028-0.219-0.045-0.324-0.073l0.041-0.21
			c-0.107-0.028-0.219-0.046-0.326-0.073l0.041-0.211c-0.105-0.028-0.219-0.045-0.326-0.073l0.043-0.21
			c-0.107-0.028-0.219-0.045-0.326-0.073l0.043-0.21c-0.107-0.028-0.221-0.045-0.328-0.073l0.043-0.21
			c-0.107-0.028-0.219-0.046-0.324-0.074l0.041-0.21c-0.107-0.028-0.219-0.045-0.324-0.073l0.041-0.209
			c-0.811-0.212-1.652-0.37-2.479-0.557l-2.25,11.21c-3.066-1.35-5.639-2.298-7.717-2.846c-2.08-0.547-4.348-0.994-6.793-1.341
			c-2.441-0.346-4.723-0.521-6.842-0.521c-5.326,0-9.508,0.969-12.535,2.902c-3.031,1.934-4.543,4.324-4.543,7.17
			c0,1.169,0.266,2.29,0.793,3.366c0.529,1.078,2.197,2.455,5.01,4.133l14.943,8.977c1.604,0.955,3.068,1.917,4.414,2.89
			c0.746-1.027,1.764-1.972,3.098-2.822c3.027-1.933,7.209-2.901,12.533-2.901c2.117,0,4.4,0.175,6.844,0.52
			c2.445,0.347,4.711,0.793,6.791,1.341c2.08,0.547,4.652,1.497,7.719,2.846l2.572-12.808
			C407.172,68.929,407.059,68.911,406.953,68.883z"/>
		<path fill="#2B2C2D" d="M184.225,112.181c-1.238-3.521-1.881-7.443-1.881-11.8c0-9.079,1.643-18.243,4.926-27.486
			c1.113-3.135,2.42-6.035,3.887-8.738c-0.008-0.008-0.016-0.016-0.023-0.024c-0.088-0.096-0.188-0.185-0.279-0.278
			c-0.092-0.1-0.191-0.192-0.287-0.289c-0.09-0.096-0.188-0.186-0.279-0.279c-0.092-0.098-0.191-0.19-0.287-0.285
			c-0.09-0.098-0.189-0.189-0.283-0.283c-0.09-0.099-0.191-0.19-0.285-0.286c-0.088-0.095-0.186-0.183-0.277-0.276
			c-0.092-0.1-0.193-0.194-0.291-0.292c-0.088-0.096-0.186-0.185-0.279-0.278c-0.09-0.099-0.189-0.19-0.285-0.287
			c-0.092-0.099-0.193-0.191-0.287-0.288c-0.088-0.094-0.186-0.183-0.275-0.274c-0.092-0.099-0.193-0.192-0.289-0.289
			c-0.09-0.098-0.189-0.188-0.283-0.284c-0.09-0.098-0.189-0.189-0.283-0.285c-0.092-0.098-0.193-0.189-0.287-0.286
			c-0.088-0.095-0.186-0.184-0.277-0.277c-0.092-0.1-0.193-0.192-0.289-0.29c-0.09-0.097-0.189-0.188-0.283-0.283
			c-0.09-0.096-0.188-0.185-0.279-0.278c-0.092-0.1-0.193-0.193-0.289-0.291c-0.09-0.095-0.186-0.184-0.277-0.277
			c-0.092-0.099-0.191-0.191-0.287-0.287c-0.09-0.098-0.189-0.188-0.283-0.283c-0.09-0.098-0.189-0.188-0.283-0.283
			c-0.092-0.1-0.193-0.192-0.289-0.289c-0.088-0.095-0.186-0.183-0.277-0.276c-0.09-0.099-0.191-0.191-0.285-0.288
			c-0.092-0.097-0.189-0.188-0.285-0.283c-0.09-0.098-0.191-0.189-0.285-0.285c-0.088-0.097-0.188-0.186-0.279-0.28
			c-0.092-0.098-0.189-0.189-0.283-0.284c-0.092-0.1-0.193-0.192-0.289-0.289c-0.088-0.096-0.188-0.185-0.277-0.278
			c-0.092-0.097-0.191-0.189-0.285-0.285c-0.092-0.099-0.191-0.19-0.287-0.287c-0.09-0.097-0.189-0.188-0.283-0.282
			c-0.09-0.097-0.188-0.187-0.279-0.28c-0.092-0.098-0.189-0.189-0.285-0.285c-0.092-0.099-0.191-0.192-0.287-0.288
			c-0.09-0.097-0.189-0.187-0.281-0.281c-0.092-0.099-0.193-0.191-0.287-0.287c-0.09-0.095-0.186-0.184-0.277-0.277
			c-0.373-0.404-0.771-0.789-1.203-1.149c-0.094-0.08-0.203-0.146-0.301-0.224c1.984,2.525,2.99,5.779,2.99,9.782
			c0,3.431-0.75,6.87-2.246,10.317c-1.498,3.449-3.646,6.697-6.443,9.744c-2.793,3.048-6.584,5.758-11.37,8.128l13.437,37.057
			h-18.679l-11.891-33.116h-6.013l-6.623,33.116h-16.186l1.27-6.349c-0.018,0.007-0.034,0.013-0.052,0.021l0.089-0.436
			c-0.126,0.054-0.247,0.099-0.372,0.152l0.088-0.436c-0.126,0.054-0.247,0.099-0.372,0.152l0.088-0.436
			c-0.125,0.054-0.245,0.098-0.37,0.151l0.088-0.435c-0.126,0.055-0.247,0.099-0.373,0.152l0.089-0.438
			c-0.126,0.055-0.247,0.1-0.372,0.152l0.088-0.436c-0.126,0.055-0.246,0.1-0.371,0.152l0.088-0.437
			c-0.126,0.054-0.246,0.099-0.372,0.152l0.088-0.436c-0.126,0.054-0.246,0.099-0.371,0.151l0.088-0.436
			c-0.126,0.055-0.247,0.1-0.372,0.152l0.088-0.436c-0.126,0.055-0.246,0.1-0.372,0.152l0.089-0.436
			c-0.126,0.055-0.246,0.1-0.372,0.152l0.089-0.436c-0.126,0.054-0.247,0.099-0.372,0.152l0.088-0.437
			c-0.126,0.054-0.247,0.099-0.372,0.152l0.088-0.437c-0.126,0.054-0.246,0.098-0.371,0.152l0.088-0.436
			c-0.126,0.054-0.247,0.099-0.372,0.152l0.088-0.437c-0.126,0.054-0.246,0.099-0.371,0.151l0.088-0.435
			c-0.126,0.054-0.246,0.099-0.372,0.152l0.089-0.437c-0.126,0.055-0.246,0.1-0.371,0.152l0.088-0.436
			c-0.126,0.055-0.248,0.1-0.374,0.152l0.089-0.437c-0.126,0.054-0.246,0.099-0.371,0.151l0.088-0.435
			c-0.126,0.054-0.246,0.099-0.371,0.152l0.088-0.437c-0.958,0.411-1.898,0.795-2.828,1.16l-1.846,9.102
			c-9.12,2.99-17.454,4.484-25.006,4.484c-8.967,0-16.221-2.512-21.8-7.479c0.449,0.506,0.892,1.02,1.385,1.491
			c0.031,0.03,0.066,0.055,0.098,0.084c0.065,0.064,0.119,0.138,0.186,0.2c0.034,0.031,0.071,0.059,0.104,0.091
			c0.063,0.062,0.115,0.132,0.179,0.192c0.032,0.029,0.067,0.055,0.099,0.084c0.065,0.064,0.12,0.137,0.186,0.199
			c0.034,0.033,0.072,0.06,0.105,0.092c0.062,0.062,0.115,0.132,0.179,0.191c0.031,0.031,0.066,0.056,0.098,0.086
			c0.065,0.062,0.119,0.136,0.186,0.198c0.034,0.034,0.074,0.062,0.108,0.095c0.062,0.061,0.113,0.129,0.176,0.188
			c0.031,0.03,0.066,0.056,0.099,0.085c0.064,0.062,0.119,0.137,0.185,0.199c0.034,0.032,0.071,0.059,0.105,0.091
			c0.063,0.062,0.115,0.132,0.179,0.192c0.031,0.029,0.066,0.055,0.098,0.085c0.065,0.063,0.12,0.136,0.186,0.199
			c0.032,0.031,0.069,0.058,0.103,0.089c0.063,0.061,0.116,0.133,0.182,0.195c0.032,0.031,0.069,0.057,0.102,0.088
			c0.064,0.062,0.117,0.134,0.182,0.195c0.033,0.031,0.069,0.057,0.103,0.088c0.063,0.062,0.117,0.134,0.181,0.195
			c0.032,0.03,0.066,0.055,0.099,0.084c0.064,0.064,0.119,0.138,0.185,0.2c0.034,0.032,0.072,0.059,0.106,0.091
			c0.062,0.062,0.115,0.132,0.179,0.193c0.034,0.032,0.071,0.059,0.104,0.091c0.063,0.062,0.115,0.132,0.179,0.192
			c0.032,0.029,0.066,0.055,0.099,0.084c0.064,0.064,0.12,0.137,0.186,0.2c0.032,0.03,0.068,0.056,0.103,0.087
			c0.062,0.062,0.116,0.135,0.181,0.195c0.031,0.031,0.066,0.056,0.098,0.086c0.066,0.063,0.12,0.136,0.186,0.199
			c0.034,0.033,0.072,0.059,0.105,0.092c0.062,0.061,0.115,0.131,0.179,0.191c0.032,0.031,0.069,0.057,0.102,0.088
			c0.064,0.062,0.116,0.133,0.182,0.195c0.032,0.031,0.068,0.057,0.102,0.088c0.063,0.062,0.116,0.133,0.182,0.195
			c0.032,0.031,0.069,0.057,0.102,0.088c0.064,0.062,0.118,0.135,0.183,0.196c0.034,0.032,0.071,0.06,0.105,0.091
			c0.063,0.062,0.115,0.133,0.179,0.192c0.031,0.03,0.066,0.056,0.099,0.085c0.064,0.063,0.119,0.137,0.186,0.199
			c0.032,0.031,0.068,0.057,0.101,0.088c0.064,0.062,0.118,0.134,0.182,0.195c0.033,0.031,0.069,0.058,0.103,0.088
			c0.063,0.062,0.117,0.135,0.182,0.196c0.032,0.03,0.069,0.057,0.103,0.089c0.063,0.062,0.116,0.133,0.182,0.195
			c0.032,0.031,0.068,0.057,0.102,0.087c0.063,0.063,0.117,0.134,0.182,0.196c0.031,0.029,0.066,0.055,0.098,0.084
			c0.066,0.064,0.12,0.137,0.186,0.2c0.034,0.032,0.072,0.059,0.106,0.091c0.062,0.062,0.114,0.132,0.178,0.192
			c0.032,0.03,0.069,0.058,0.103,0.088c0.062,0.062,0.116,0.134,0.182,0.196c0.033,0.032,0.071,0.059,0.105,0.091
			c0.062,0.062,0.114,0.131,0.178,0.192c0.032,0.029,0.066,0.055,0.099,0.084c0.064,0.064,0.119,0.137,0.185,0.199
			c0.034,0.033,0.071,0.059,0.105,0.092c0.062,0.061,0.115,0.131,0.179,0.191c0.031,0.03,0.066,0.055,0.098,0.085
			c0.065,0.063,0.12,0.136,0.186,0.2c0.033,0.03,0.069,0.056,0.102,0.087c0.064,0.062,0.118,0.134,0.182,0.195
			c0.032,0.03,0.066,0.056,0.099,0.085c0.065,0.063,0.12,0.137,0.186,0.199c0.034,0.033,0.072,0.06,0.105,0.092
			c0.062,0.061,0.115,0.132,0.179,0.191c0.031,0.031,0.066,0.056,0.098,0.086c0.065,0.062,0.119,0.136,0.185,0.198
			c0.034,0.032,0.072,0.06,0.106,0.091c0.062,0.062,0.115,0.132,0.179,0.193c0.032,0.031,0.068,0.057,0.102,0.088
			c0.063,0.062,0.117,0.133,0.182,0.195c0.034,0.032,0.071,0.059,0.105,0.091c0.062,0.062,0.115,0.132,0.178,0.192
			c0.032,0.029,0.067,0.055,0.099,0.084c0.065,0.064,0.12,0.137,0.186,0.2c0.032,0.03,0.069,0.057,0.102,0.087
			c0.064,0.062,0.116,0.135,0.182,0.196c0.032,0.03,0.069,0.058,0.103,0.088c0.063,0.063,0.117,0.135,0.182,0.196
			c0.033,0.031,0.069,0.057,0.102,0.088c0.064,0.062,0.118,0.134,0.182,0.195c0.03,0.029,0.064,0.053,0.095,0.082
			c0.066,0.064,0.121,0.139,0.188,0.203c0.035,0.033,0.074,0.061,0.11,0.094c0.061,0.061,0.112,0.129,0.175,0.189
			c0.032,0.03,0.068,0.057,0.101,0.087c0.064,0.062,0.117,0.134,0.182,0.196c0.033,0.03,0.07,0.057,0.103,0.088
			c0.063,0.062,0.117,0.133,0.182,0.195c0.032,0.031,0.069,0.057,0.103,0.088c0.063,0.062,0.116,0.135,0.182,0.195
			c0.032,0.031,0.068,0.058,0.102,0.089c0.063,0.062,0.117,0.134,0.182,0.196c0.032,0.029,0.067,0.055,0.099,0.084
			c0.065,0.064,0.119,0.137,0.185,0.199c0.034,0.032,0.072,0.059,0.105,0.092c0.062,0.061,0.115,0.131,0.179,0.191
			c0.032,0.031,0.068,0.057,0.102,0.088c0.063,0.062,0.117,0.133,0.182,0.195c0.032,0.031,0.069,0.057,0.102,0.088
			c0.064,0.062,0.118,0.135,0.183,0.196c0.032,0.031,0.07,0.058,0.103,0.089c0.063,0.062,0.116,0.133,0.182,0.195
			c0.032,0.031,0.068,0.057,0.102,0.088c0.063,0.062,0.117,0.133,0.182,0.195c0.032,0.031,0.068,0.057,0.102,0.088
			c0.064,0.062,0.117,0.134,0.182,0.195c0.034,0.033,0.071,0.059,0.105,0.092c0.063,0.061,0.115,0.131,0.179,0.191
			c0.03,0.029,0.064,0.053,0.095,0.082c0.066,0.064,0.121,0.139,0.188,0.203c0.034,0.032,0.072,0.059,0.105,0.091
			c0.062,0.062,0.115,0.132,0.179,0.192c0.033,0.031,0.071,0.059,0.104,0.091c0.063,0.062,0.116,0.132,0.18,0.192
			c0.031,0.03,0.066,0.055,0.099,0.084c0.064,0.064,0.119,0.137,0.185,0.2c0.032,0.03,0.069,0.058,0.102,0.088
			c0.063,0.062,0.117,0.134,0.183,0.196c0.032,0.031,0.068,0.056,0.102,0.088c0.064,0.062,0.117,0.133,0.182,0.195
			c0.032,0.031,0.069,0.057,0.102,0.088c0.064,0.062,0.117,0.133,0.182,0.195c0.032,0.031,0.069,0.057,0.103,0.088
			c0.063,0.062,0.116,0.134,0.182,0.195c0.032,0.031,0.068,0.057,0.102,0.088c0.063,0.062,0.117,0.134,0.182,0.195
			c0.031,0.031,0.066,0.055,0.098,0.086c0.065,0.062,0.12,0.136,0.186,0.199c0.034,0.032,0.071,0.059,0.105,0.092
			c0.063,0.061,0.115,0.13,0.179,0.191c0.032,0.031,0.068,0.057,0.102,0.088c0.064,0.062,0.117,0.134,0.183,0.195
			c0.033,0.033,0.07,0.059,0.104,0.092c0.063,0.061,0.115,0.131,0.179,0.191c0.032,0.03,0.067,0.055,0.099,0.086
			c0.065,0.062,0.12,0.136,0.186,0.199c0.032,0.031,0.068,0.057,0.102,0.087c0.063,0.063,0.117,0.134,0.182,0.196
			c0.032,0.031,0.069,0.057,0.102,0.088c0.063,0.062,0.117,0.134,0.182,0.195c5.672,5.43,13.196,8.144,22.571,8.144
			c7.551,0,15.886-1.495,25.006-4.484l1.17-5.769h0.27l-0.057,0.285h0.339l-0.056,0.283h0.341l-0.057,0.283h0.34l-0.057,0.284h0.34
			l-0.057,0.284h0.341l-0.057,0.283h0.34l-0.057,0.283h0.34l-0.057,0.285h0.341l-0.057,0.283h0.341l-0.057,0.283h0.34l-0.057,0.284
			h0.34l-0.056,0.283h0.34l-0.057,0.284h0.341l-0.057,0.283h0.339l-0.056,0.283h0.34l-0.057,0.283h0.341l-0.057,0.285h0.34
			l-0.057,0.283h0.34l-0.056,0.283h0.34l-0.057,0.283h0.34l-0.057,0.284h0.341l-0.057,0.284h0.341l-0.057,0.283h0.341l-0.057,0.283
			h0.339l-0.056,0.284h0.34l-0.057,0.284h0.341l-0.057,0.283h0.34l-0.057,0.284h0.34l-0.057,0.283h16.186l4.092-20.458l0.012,0.034
			h0.182l0.102,0.284h0.182l0.103,0.283h0.182l0.102,0.283h0.182l0.102,0.284h0.182l0.102,0.283h0.183l0.103,0.285h0.183
			l0.101,0.283h0.182l0.102,0.284h0.183l0.102,0.283h0.182l0.102,0.283h0.183l0.102,0.283h0.182l0.102,0.283h0.182l0.104,0.284
			h0.182l0.102,0.284h0.182l0.102,0.283h0.184l0.102,0.283h0.18l0.102,0.285h0.184l0.102,0.283h0.182l0.102,0.283h0.182l0.102,0.284
			h0.184l0.1,0.283h0.182l0.104,0.284h0.182l0.102,0.283h0.182l0.102,0.283h0.182l0.102,0.283h0.182l0.102,0.285h0.184l0.102,0.282
			h0.182l0.102,0.284h0.184l0.102,0.283h0.18l0.104,0.285h0.182l0.102,0.283h0.182l0.102,0.283h0.182l0.102,0.283h0.182l0.102,0.284
			h0.184l0.102,0.284h0.182l0.102,0.283h0.184l0.1,0.283h0.182l0.102,0.285h0.184l0.102,0.283h0.182l0.102,0.283h0.182l0.102,0.284
			h0.184l0.102,0.282h0.182l0.102,0.283h0.18l0.104,0.285h0.182l0.102,0.283h0.182l0.102,0.283h0.182l0.104,0.284h0.18l0.102,0.284
			h0.184l0.102,0.283h0.182l0.102,0.283h0.182l0.102,0.285h0.184l0.102,0.283h0.182l0.102,0.283h0.182l0.102,0.284h0.184
			l0.102,0.283h0.18l0.104,0.284h0.182l0.102,0.283h0.182l0.102,0.283h0.182l0.102,0.283h0.182l0.102,0.285h0.184l0.102,0.283h0.182
			l0.102,0.283h0.182l0.102,0.283h0.182l0.102,0.284h0.184l0.102,0.284h0.182l0.102,0.283h0.182l0.102,0.283h0.182l0.102,0.284
			h0.182l0.104,0.284h0.182l0.102,0.283h0.182l0.102,0.284h0.182l0.102,0.283h18.677l-13.436-37.058
			C184.131,112.23,184.178,112.205,184.225,112.181z"/>
	</g>
	<g>
		<path fill="#2B2C2D" d="M588.045,93.975l-13.467-8.211c-2.762-1.69-4.996-3.29-6.725-4.803c0.365,0.426,0.764,0.855,1.221,1.296
			c0.092,0.094,0.182,0.188,0.281,0.282c0.094,0.094,0.186,0.188,0.283,0.284c0.096,0.096,0.189,0.192,0.289,0.289
			c0.094,0.093,0.184,0.186,0.281,0.28c0.094,0.095,0.188,0.19,0.285,0.286c0.092,0.092,0.18,0.183,0.275,0.273
			c0.096,0.098,0.189,0.195,0.291,0.293c0.094,0.094,0.184,0.188,0.281,0.281c0.096,0.095,0.186,0.188,0.283,0.283
			c0.096,0.096,0.188,0.19,0.289,0.286c0.092,0.095,0.182,0.188,0.279,0.281c0.094,0.095,0.184,0.188,0.281,0.282
			c0.094,0.094,0.186,0.189,0.287,0.286c0.094,0.094,0.186,0.189,0.285,0.286c0.094,0.093,0.184,0.184,0.279,0.278
			c0.094,0.094,0.186,0.19,0.285,0.286c0.094,0.094,0.184,0.188,0.283,0.283c0.096,0.096,0.189,0.191,0.289,0.289
			c0.092,0.091,0.178,0.181,0.273,0.272c0.096,0.099,0.193,0.196,0.295,0.295c0.092,0.095,0.184,0.186,0.279,0.28
			c0.094,0.093,0.182,0.184,0.277,0.276c0.098,0.098,0.189,0.193,0.293,0.293c0.094,0.094,0.184,0.187,0.283,0.281
			c0.09,0.093,0.178,0.185,0.275,0.277c0.094,0.094,0.186,0.188,0.281,0.282c0.098,0.1,0.193,0.197,0.297,0.296
			c0.092,0.093,0.182,0.186,0.277,0.278c0.096,0.095,0.186,0.188,0.283,0.283c0.096,0.096,0.188,0.19,0.287,0.286
			c0.092,0.093,0.182,0.186,0.277,0.278c0.096,0.096,0.189,0.191,0.289,0.289c0.094,0.093,0.184,0.186,0.281,0.28
			c0.096,0.095,0.188,0.19,0.285,0.286c0.094,0.093,0.182,0.184,0.277,0.277c0.098,0.097,0.189,0.193,0.293,0.292
			c0.092,0.093,0.184,0.188,0.283,0.281c0.092,0.095,0.182,0.188,0.279,0.281c0.094,0.093,0.184,0.188,0.281,0.282
			c0.098,0.098,0.191,0.193,0.293,0.29c0.09,0.092,0.178,0.183,0.271,0.274c0.098,0.098,0.191,0.193,0.293,0.292
			c0.092,0.093,0.182,0.186,0.279,0.28c0.094,0.093,0.184,0.188,0.281,0.281c0.096,0.095,0.186,0.188,0.285,0.285
			c0.096,0.096,0.189,0.193,0.291,0.29c0.09,0.092,0.178,0.182,0.271,0.272c0.098,0.1,0.193,0.196,0.297,0.296
			c0.092,0.093,0.18,0.184,0.277,0.276c0.094,0.095,0.184,0.188,0.281,0.282c0.096,0.097,0.188,0.192,0.289,0.289
			c0.094,0.094,0.184,0.187,0.281,0.281c0.094,0.095,0.184,0.188,0.281,0.281c0.096,0.096,0.188,0.19,0.285,0.286
			c0.096,0.095,0.186,0.188,0.283,0.283c0.096,0.095,0.186,0.188,0.285,0.285c0.094,0.093,0.184,0.187,0.281,0.281
			c0.096,0.096,0.189,0.19,0.289,0.287c0.092,0.094,0.18,0.185,0.275,0.277c0.098,0.098,0.191,0.193,0.293,0.292
			c0.092,0.09,0.178,0.18,0.271,0.271c0.098,0.097,0.191,0.196,0.295,0.294c0.092,0.093,0.18,0.186,0.277,0.279
			c0.096,0.096,0.189,0.192,0.289,0.288c0.094,0.094,0.184,0.187,0.281,0.281c0.092,0.092,0.18,0.183,0.275,0.275
			c0.098,0.099,0.195,0.199,0.299,0.3c0.092,0.092,0.182,0.184,0.277,0.277c0.094,0.092,0.184,0.186,0.281,0.279
			c0.096,0.094,0.186,0.189,0.285,0.287c0.094,0.092,0.184,0.186,0.279,0.279c0.098,0.096,0.191,0.193,0.291,0.291
			c0.094,0.092,0.182,0.186,0.281,0.279c0.094,0.094,0.18,0.184,0.279,0.279c0.096,0.098,0.191,0.193,0.293,0.293
			c1.127,1.129,2.584,2.316,4.328,3.553c0.586-1.291,0.916-2.596,0.916-3.92c0-1.203-0.328-2.463-0.984-3.777
			C593.918,98.081,591.727,96.274,588.045,93.975z"/>
		<path fill="#2B2C2D" d="M618.764,46.803l-2.254,11.21c-3.062-1.351-5.639-2.301-7.721-2.847c-2.078-0.548-4.34-0.994-6.787-1.341
			c-2.441-0.348-4.725-0.521-6.84-0.521c-5.328,0-9.51,0.969-12.537,2.902c-3.031,1.935-4.543,4.323-4.543,7.171
			c0,1.168,0.262,2.289,0.791,3.365c0.531,1.075,2.199,2.455,5.012,4.134l14.943,8.976c1.602,0.955,3.068,1.919,4.414,2.89
			c0.746-1.027,1.764-1.971,3.096-2.821c3.029-1.934,7.209-2.901,12.537-2.901c2.119,0,4.398,0.173,6.842,0.52
			c2.445,0.348,4.705,0.793,6.787,1.341c2.08,0.548,4.656,1.497,7.723,2.847l2.406-11.988h0.025l-0.057,0.284h0.342l-0.059,0.283
			h0.342l-0.059,0.283h0.342l-0.057,0.285h0.34l-0.059,0.282h0.34l-0.055,0.285h0.34l-0.055,0.283h0.34l-0.057,0.283h0.342
			l-0.059,0.284h0.34l-0.057,0.283h0.34l-0.055,0.284h0.34l-0.059,0.283h0.34l-0.055,0.283h0.34l-0.055,0.285h0.34l-0.059,0.282
			h0.34l-0.057,0.283h0.342l-0.057,0.285h0.34l-0.059,0.284h0.344l-0.059,0.283h0.34l-0.055,0.283h0.287l3.988-20.026h-21.711
			l-0.258,1.267c-0.006-0.002-0.016-0.003-0.025-0.007l0.045-0.208c-0.109-0.028-0.221-0.047-0.326-0.073l0.041-0.21
			c-0.105-0.028-0.217-0.047-0.324-0.073l0.043-0.212c-0.109-0.027-0.221-0.046-0.328-0.074l0.043-0.209
			c-0.107-0.027-0.219-0.046-0.324-0.072l0.023-0.128h-1.203l0.199-0.972c-0.053-0.011-0.105-0.021-0.156-0.034l0.041-0.212
			c-0.105-0.028-0.217-0.047-0.324-0.072l0.043-0.211c-0.109-0.027-0.221-0.046-0.328-0.072l0.043-0.211
			c-0.107-0.027-0.219-0.046-0.324-0.072l0.039-0.212c-0.104-0.028-0.215-0.047-0.324-0.073l0.043-0.21
			c-0.107-0.028-0.219-0.047-0.328-0.073l0.045-0.21c-0.109-0.027-0.221-0.046-0.326-0.072l0.041-0.212
			c-0.105-0.028-0.217-0.047-0.324-0.073l0.043-0.212c-0.109-0.027-0.221-0.046-0.328-0.074l0.043-0.209
			c-0.107-0.027-0.219-0.046-0.324-0.072l0.039-0.211c-0.105-0.027-0.219-0.046-0.324-0.074l0.041-0.21
			c-0.105-0.028-0.217-0.046-0.326-0.072l0.043-0.211c-0.107-0.027-0.219-0.046-0.324-0.072l0.041-0.211
			c-0.105-0.027-0.221-0.046-0.326-0.074l0.041-0.21c-0.105-0.028-0.217-0.047-0.324-0.073l0.043-0.21
			c-0.109-0.028-0.221-0.047-0.328-0.074l0.043-0.21c-0.107-0.028-0.219-0.047-0.324-0.073l0.039-0.21
			c-0.104-0.028-0.219-0.047-0.324-0.074l0.041-0.211c-0.105-0.027-0.217-0.046-0.326-0.072l0.045-0.211
			c-0.109-0.027-0.221-0.046-0.326-0.072l0.041-0.21c-0.105-0.028-0.217-0.047-0.326-0.073l0.045-0.212
			c-0.109-0.027-0.221-0.046-0.328-0.072l0.043-0.211c-0.109-0.027-0.221-0.046-0.328-0.072l0.043-0.211
			c-0.107-0.027-0.219-0.046-0.324-0.072l0.039-0.212c-0.104-0.028-0.215-0.047-0.324-0.073l0.043-0.21
			C620.43,47.148,619.59,46.99,618.764,46.803z"/>
		<path fill="#2B2C2D" d="M553.137,46.703l-1.711,8.683h-34.482l-4.576,22.88h29.031l-0.166,0.834h24.719
			c-0.674-0.749-1.217-1.476-1.607-2.175c-1.463-2.608-2.189-5.446-2.189-8.512c0-4.185,1.168-8.11,3.488-11.782h-0.338l0.057-0.283
			h-0.34l0.057-0.283h-0.34l0.055-0.285h-0.34l0.055-0.282h-0.336l0.055-0.283h-0.34l0.057-0.285h-0.342l0.057-0.283h-0.34
			l0.057-0.284h-0.34l0.057-0.283h-0.34l0.055-0.284h-0.338l0.055-0.283h-0.338l0.055-0.283h-0.34l0.057-0.284h-0.34l0.057-0.283
			h-0.34l0.057-0.283h-0.34l0.055-0.285h-0.338l0.055-0.283h-0.34l0.055-0.284h-0.338l0.055-0.283h-0.338l0.057-0.283h-0.342
			l0.057-0.284h-0.34l0.057-0.283h-0.34l0.055-0.284h-0.338l0.055-0.283h-0.338l0.055-0.283h-0.34l0.057-0.285h-0.34l0.057-0.282
			h-0.34l0.057-0.283h-0.342l0.057-0.285h-0.338l0.055-0.283h-0.34l0.055-0.283h-0.338l0.055-0.282h-0.34l0.057-0.286h-0.34
			L556,46.986h-0.34l0.057-0.283H553.137z"/>
		<path fill="#2B2C2D" d="M565.113,101.979h-0.342l0.057-0.283h-0.34l0.057-0.285h-0.34l0.057-0.283h-0.342l0.059-0.283h-0.34
			l0.057-0.284h-0.34l0.057-0.283h-0.342l0.057-0.285h-0.34l0.057-0.282h-0.342l0.059-0.285h-0.342l0.059-0.283h-0.342l0.059-0.283
			h-0.342l0.057-0.282h-0.34l0.057-0.285h-0.34l0.057-0.283h-0.342l0.057-0.284h-0.34l0.057-0.283h-0.342l0.059-0.285h-0.342
			l0.059-0.282h-0.342l0.057-0.285h-0.338l0.055-0.281h-0.34l0.057-0.285h-0.342l0.057-0.282h-0.34l0.059-0.285h-0.342l0.059-0.283
			h-0.342l0.057-0.284h-0.34l0.057-0.283h-0.34l0.057-0.283h-0.342l0.057-0.284h-0.34l0.057-0.283h-0.34l0.057-0.283h-0.342
			l0.059-0.285h-0.342l0.059-0.282h-0.342l0.057-0.285h-0.34l0.057-0.283h-0.342l0.057-0.283h-0.34l0.057-0.282h-0.34l0.059-0.285
			h-0.344l0.059-0.284h-0.34l0.057-0.283h-0.34l0.057-0.283h-0.342l0.057-0.284h-0.34l0.057-0.283h-0.34l0.057-0.283h-0.342
			l0.059-0.285h-0.342l0.059-0.283h-0.342l0.059-0.282h-0.342l0.057-0.285h-0.342l0.057-0.283h-0.34l0.057-0.284h-0.34l0.057-0.283
			h-0.34l0.059-0.284h-0.344l0.059-0.283h-0.34l0.057-0.283h-0.342l0.057-0.285h-0.34l0.057-0.282h-0.34l0.057-0.283h-0.342
			l0.059-0.285h-0.342l0.059-0.283h-0.342l0.057-0.284h-0.34l0.057-0.283h-0.34l0.057-0.283h-0.342l0.057-0.284h-0.34l0.057-0.283
			H546.9l0.059-0.283h-0.342l0.059-0.284h-0.342l0.059-0.283h-0.342l0.057-0.285h-0.34l0.057-0.283h-0.34l0.057-0.284h-0.342
			l0.057-0.283h-0.34l0.059-0.283h-0.342l0.059-0.283h-0.342l0.057-0.284h-0.34l0.057-0.283h-0.342l0.057-0.284h-0.34l0.057-0.283
			h-2.588l-1.596,7.971h-29.029l-5.266,26.328h28.457l0.521-2.613h19.33l0.154-0.779c0.625,0.277,1.248,0.523,1.871,0.779h7.674
			L565.113,101.979z"/>
		<polygon fill="#2B2C2D" points="718.375,68.26 718.432,67.977 718.09,67.977 718.146,67.693 717.809,67.693 717.865,67.41 
			717.525,67.41 717.58,67.125 717.24,67.125 717.295,66.842 716.959,66.842 717.014,66.559 716.674,66.559 716.729,66.275 
			716.389,66.275 716.445,65.992 716.107,65.992 716.164,65.708 715.822,65.708 715.879,65.423 715.539,65.423 715.594,65.14 
			715.258,65.14 715.312,64.856 714.973,64.856 715.027,64.573 714.688,64.573 714.744,64.29 714.402,64.29 714.459,64.005 
			714.121,64.005 714.178,63.722 713.836,63.722 713.893,63.439 713.553,63.439 713.607,63.155 713.271,63.155 713.326,62.87 
			712.986,62.87 713.041,62.586 712.701,62.586 712.758,62.304 712.42,62.304 712.477,62.021 712.135,62.021 712.191,61.738 
			711.852,61.738 711.906,61.453 711.568,61.453 711.625,61.168 711.285,61.168 711.34,60.885 711,60.885 711.057,60.602 
			710.719,60.602 710.773,60.318 710.434,60.318 710.49,60.035 710.148,60.035 710.205,59.751 709.865,59.751 709.92,59.467 
			709.584,59.467 709.639,59.182 709.299,59.182 709.354,58.899 709.014,58.899 709.07,58.616 708.732,58.616 708.787,58.333 
			708.447,58.333 708.504,58.048 708.164,58.048 708.219,57.765 707.881,57.765 707.938,57.481 707.598,57.481 707.652,57.198 
			707.312,57.198 707.367,56.915 707.031,56.915 707.086,56.63 706.746,56.63 706.803,56.347 706.461,56.347 706.518,56.064 
			706.18,56.064 706.236,55.779 705.895,55.779 705.951,55.497 705.611,55.497 705.666,55.213 705.326,55.213 705.383,54.928 
			705.045,54.928 705.1,54.645 704.76,54.645 704.816,54.361 704.475,54.361 704.531,54.078 704.193,54.078 704.25,53.793 
			703.91,53.793 703.965,53.51 703.625,53.51 703.68,53.227 703.344,53.227 703.398,52.943 703.059,52.943 703.115,52.66 
			702.773,52.66 702.83,52.376 702.492,52.376 702.549,52.091 702.207,52.091 702.264,51.808 701.924,51.808 701.979,51.524 
			701.639,51.524 701.693,51.241 701.357,51.241 701.412,50.958 701.072,50.958 701.129,50.673 700.787,50.673 700.844,50.39 
			700.506,50.39 700.562,50.106 700.223,50.106 700.277,49.823 699.938,49.823 699.992,49.54 699.652,49.54 699.709,49.254 
			699.371,49.254 699.426,48.972 699.086,48.972 699.143,48.689 698.805,48.689 698.861,48.404 698.52,48.404 698.576,48.121 
			698.236,48.121 698.291,47.837 697.951,47.837 698.006,47.555 697.666,47.555 697.723,47.269 697.385,47.269 697.441,46.986 
			697.1,46.986 697.156,46.703 694.576,46.703 692.861,55.385 668.512,55.385 654.477,125.559 640.879,125.559 640.449,127.715 
			640.787,127.715 640.73,127.998 641.074,127.998 641.016,128.281 641.355,128.281 641.301,128.564 641.641,128.564 
			641.582,128.85 641.922,128.85 641.867,129.133 642.207,129.133 642.15,129.416 642.49,129.416 642.436,129.701 642.773,129.701 
			642.717,129.984 643.057,129.984 643.002,130.266 643.342,130.266 643.287,130.551 643.623,130.551 643.568,130.834 
			643.908,130.834 643.852,131.119 644.193,131.119 644.137,131.402 644.475,131.402 644.418,131.686 644.762,131.686 
			644.703,131.969 645.043,131.969 644.988,132.252 645.324,132.252 645.27,132.535 645.613,132.535 645.555,132.82 645.895,132.82 
			645.838,133.105 646.18,133.105 646.123,133.389 646.461,133.389 646.404,133.672 646.744,133.672 646.689,133.955 
			647.029,133.955 646.975,134.238 647.311,134.238 647.256,134.521 647.596,134.521 647.539,134.807 647.881,134.807 
			647.824,135.09 648.164,135.09 648.109,135.373 648.449,135.373 648.391,135.658 648.73,135.658 648.676,135.939 649.012,135.939 
			648.957,136.223 649.301,136.223 649.242,136.508 649.582,136.508 649.525,136.791 649.867,136.791 649.811,137.076 
			650.148,137.076 650.092,137.359 650.432,137.359 650.377,137.643 650.717,137.643 650.662,137.926 651.002,137.926 
			650.943,138.209 651.283,138.209 651.229,138.494 651.568,138.494 651.512,138.777 651.85,138.777 651.793,139.061 
			652.137,139.061 652.078,139.346 652.418,139.346 652.363,139.629 652.703,139.629 652.648,139.91 652.984,139.91 652.93,140.195 
			653.27,140.195 653.213,140.479 653.555,140.479 653.498,140.764 653.836,140.764 653.779,141.047 654.121,141.047 
			654.064,141.33 654.404,141.33 654.35,141.613 654.689,141.613 654.631,141.896 654.971,141.896 654.916,142.182 655.256,142.182 
			655.199,142.465 655.537,142.465 655.48,142.748 655.824,142.748 655.766,143.033 656.105,143.033 656.051,143.316 
			656.391,143.316 656.336,143.6 656.672,143.6 656.617,143.883 656.957,143.883 656.9,144.166 657.238,144.166 657.184,144.449 
			657.525,144.449 657.467,144.734 657.809,144.734 657.752,145.018 658.092,145.018 658.037,145.301 658.377,145.301 
			658.318,145.584 658.658,145.584 658.604,145.867 658.943,145.867 658.887,146.152 659.225,146.152 659.17,146.436 
			659.512,146.436 659.453,146.721 659.793,146.721 659.738,147.004 660.078,147.004 660.023,147.287 660.359,147.287 
			660.305,147.57 660.645,147.57 660.59,147.854 660.926,147.854 660.871,148.137 661.215,148.137 661.154,148.422 661.496,148.422 
			661.439,148.705 661.779,148.705 661.725,148.99 662.062,148.99 662.006,149.271 678.189,149.271 692.229,79.099 716.574,79.099 
			718.715,68.26 		"/>
		<path fill="#2B2C2D" d="M631.969,110.711c-0.107-0.115-0.225-0.23-0.336-0.344c-0.094-0.096-0.191-0.189-0.285-0.285
			c-0.096-0.1-0.201-0.197-0.301-0.297c-0.08-0.086-0.172-0.17-0.256-0.258c-0.094-0.096-0.195-0.193-0.291-0.291
			c-0.092-0.1-0.197-0.197-0.293-0.295c-0.09-0.092-0.186-0.186-0.279-0.277c-0.086-0.09-0.182-0.18-0.27-0.27
			c-0.098-0.105-0.207-0.207-0.309-0.312c-0.086-0.09-0.184-0.18-0.273-0.27c-0.088-0.094-0.188-0.188-0.281-0.283
			c-0.092-0.094-0.191-0.188-0.283-0.283c-0.094-0.098-0.195-0.193-0.289-0.289c-0.082-0.086-0.176-0.172-0.262-0.26
			c-0.1-0.105-0.207-0.209-0.311-0.312c-0.086-0.092-0.186-0.182-0.275-0.275c-0.092-0.096-0.193-0.191-0.287-0.287
			c-0.086-0.088-0.18-0.176-0.266-0.266c-0.094-0.098-0.195-0.195-0.295-0.295c-0.09-0.096-0.191-0.189-0.283-0.285
			c-0.098-0.1-0.201-0.199-0.297-0.297c-0.09-0.094-0.189-0.186-0.279-0.277c-0.09-0.094-0.189-0.184-0.279-0.277
			c-0.086-0.09-0.178-0.18-0.268-0.27c-0.1-0.104-0.209-0.205-0.307-0.309c-0.09-0.092-0.186-0.182-0.275-0.273
			c-0.09-0.094-0.186-0.184-0.279-0.277c-0.096-0.1-0.197-0.199-0.297-0.299c-0.086-0.092-0.186-0.182-0.275-0.273
			c-0.086-0.092-0.182-0.182-0.271-0.273c-0.096-0.1-0.201-0.199-0.301-0.299c-0.084-0.09-0.18-0.178-0.266-0.266
			c-0.096-0.102-0.201-0.201-0.301-0.303c-0.09-0.096-0.191-0.191-0.287-0.288c-0.092-0.096-0.195-0.193-0.291-0.29
			c-0.08-0.085-0.174-0.169-0.256-0.254c-0.09-0.098-0.193-0.192-0.285-0.288c-0.1-0.104-0.207-0.205-0.309-0.31
			c-0.084-0.089-0.184-0.178-0.27-0.268c-0.088-0.091-0.184-0.182-0.273-0.273c-0.092-0.095-0.191-0.188-0.283-0.284
			c-0.1-0.103-0.205-0.204-0.307-0.307c-0.084-0.088-0.176-0.175-0.264-0.263c-0.096-0.101-0.201-0.2-0.299-0.301
			c-0.084-0.088-0.178-0.175-0.264-0.261c-0.096-0.101-0.201-0.201-0.301-0.302c-0.086-0.093-0.186-0.186-0.277-0.278
			c-0.096-0.1-0.201-0.198-0.297-0.299c-0.082-0.085-0.174-0.169-0.258-0.254c-0.096-0.099-0.197-0.199-0.297-0.298
			c-0.09-0.095-0.188-0.188-0.281-0.282c-0.096-0.101-0.201-0.201-0.301-0.3c-0.082-0.09-0.18-0.177-0.266-0.265
			c-0.09-0.094-0.188-0.187-0.277-0.279c-0.094-0.098-0.195-0.195-0.291-0.293c-0.094-0.096-0.195-0.191-0.291-0.289
			c-0.088-0.093-0.186-0.186-0.279-0.278c-0.09-0.096-0.191-0.188-0.283-0.285c-0.09-0.094-0.189-0.187-0.283-0.281
			c-0.09-0.096-0.191-0.188-0.283-0.284c-0.09-0.095-0.193-0.189-0.285-0.285c-0.09-0.094-0.189-0.188-0.281-0.283
			c-0.096-0.099-0.201-0.197-0.301-0.298c-0.08-0.084-0.17-0.167-0.25-0.251c-0.1-0.102-0.205-0.202-0.303-0.305
			c-0.09-0.095-0.193-0.188-0.283-0.281c-0.088-0.095-0.191-0.188-0.283-0.282c-0.09-0.096-0.191-0.189-0.285-0.286
			c-0.09-0.094-0.189-0.187-0.281-0.281c-0.09-0.094-0.191-0.188-0.285-0.284c-0.092-0.098-0.197-0.195-0.293-0.294
			c-0.084-0.089-0.18-0.177-0.268-0.265c-0.096-0.101-0.199-0.201-0.299-0.304c-0.084-0.088-0.18-0.175-0.266-0.263
			c-0.369-0.388-0.762-0.774-1.17-1.16c-0.201-0.193-0.428-0.385-0.637-0.578c0.104,0.117,0.219,0.235,0.32,0.353
			c2.479,2.919,3.723,6.514,3.723,10.783c0,4.926-1.547,9.67-4.629,14.231c-3.088,4.564-7.363,8.084-12.842,10.564
			c-5.473,2.479-12.594,3.721-21.352,3.721c-6.506,0-13.525-0.762-21.002-2.211l-0.059,0.299h-0.25l0.057-0.283h-0.342l0.025-0.123
			c-0.645-0.127-1.27-0.225-1.922-0.363l0.242-1.217h-0.047l0.057-0.283h-0.342l0.057-0.285h-0.338l0.055-0.283h-0.338l0.055-0.283
			h-0.34l0.055-0.283h-0.338l0.055-0.283h-0.34l0.057-0.283h-0.34l0.057-0.285h-0.34l0.057-0.283h-0.34l0.055-0.285h-0.338
			l0.055-0.283h-0.34l0.057-0.283h-0.338l0.055-0.281h-0.34l0.057-0.285h-0.342l0.057-0.285h-0.34l0.057-0.283h-0.338l0.055-0.283
			h-0.34l0.055-0.283h-0.338l0.055-0.283h-0.338l0.055-0.283h-0.34l0.057-0.285h-0.34l0.057-0.285h-0.34l0.055-0.283h-0.338
			l0.055-0.283h-2.58l-1.711,8.684h-53.566l13.613-68.078h-0.143l0.057-0.283h-0.34l0.057-0.283h-0.342l0.057-0.284h-0.338
			l0.055-0.283h-0.34l0.057-0.283h-0.34l0.057-0.285h-0.34l0.057-0.282h-0.34l0.057-0.283h-0.342l0.057-0.285h-0.34l0.057-0.283
			h-0.34l0.057-0.284h-0.34l0.057-0.283h-0.342l0.057-0.284h-0.34l0.057-0.283h-0.34l0.057-0.283h-0.34l0.057-0.284h-0.342
			l0.057-0.283h-0.34l0.057-0.283h-0.34l0.057-0.285h-0.34l0.057-0.283h-0.34l0.055-0.284h-0.34l0.057-0.283h-0.34l0.057-0.283
			h-0.34l0.055-0.284h-0.338l0.057-0.283h-0.342l0.057-0.284h-0.34l0.057-0.283h-0.34l0.057-0.283h-0.34l0.057-0.285h-0.342
			l0.057-0.282h-0.34l0.057-0.283h-0.34l0.057-0.285h-0.34l0.057-0.283h-0.342l0.057-0.283h-0.338l0.055-0.282h-0.342l0.059-0.286
			h-0.342l0.057-0.283h-0.338l0.055-0.283h-2.584l-15.719,78.856h-12.779l0.779,2.156h0.182l0.102,0.283h0.18l0.104,0.283h0.182
			l0.102,0.283h0.182l0.104,0.285h0.182l0.102,0.283h0.182l0.102,0.283h0.182l0.104,0.285h0.18l0.104,0.283h0.182l0.102,0.281h0.182
			l0.102,0.285h0.182l0.104,0.283h0.18l0.104,0.285h0.182l0.102,0.283h0.182l0.102,0.283h0.182l0.104,0.283h0.18l0.104,0.283h0.18
			l0.102,0.283h0.184l0.102,0.285h0.18l0.104,0.285h0.184l0.102,0.283h0.182l0.102,0.283h0.182l0.102,0.283h0.182l0.102,0.283h0.182
			l0.102,0.283h0.182l0.104,0.285h0.182l0.102,0.283h0.182l0.102,0.283h0.182l0.102,0.285h0.182l0.104,0.281h0.18l0.104,0.283h0.18
			l0.104,0.285h0.182l0.102,0.283h0.182l0.104,0.285h0.182l0.102,0.283h0.182l0.102,0.283h0.182l0.104,0.283h0.18l0.102,0.283h0.182
			l0.104,0.285h0.182l0.102,0.283h0.182l0.102,0.283h0.182l0.102,0.285h0.182l0.104,0.283h0.18l0.104,0.281h0.182l0.102,0.285h0.182
			l0.102,0.283h0.182l0.102,0.285h0.184l0.102,0.283h0.182l0.102,0.283h0.182l0.104,0.283h0.18l0.104,0.283h0.18l0.104,0.285h0.182
			l0.102,0.283h0.182l0.102,0.283h0.182l0.102,0.285h0.182l0.104,0.283h0.18l0.104,0.283h0.182l0.102,0.283h0.182l0.102,0.283h0.182
			l0.104,0.283h0.18l0.104,0.285h0.182l0.102,0.283h0.182l0.102,0.283h0.182l0.104,0.283h0.182l0.102,0.283h0.18l0.104,0.285h0.182
			l0.102,0.283h0.182l0.102,0.285h0.184l0.102,0.283h0.18l0.104,0.283h0.182l0.102,0.283h0.184l0.102,0.283h0.18l0.104,0.283h0.18
			l0.104,0.285h0.182l0.102,0.283h0.182l0.102,0.285h0.182l0.104,0.281h14.154l2.545-12.764h0.303l-0.055,0.283h0.34l-0.059,0.285
			h0.342l-0.057,0.283h0.34l-0.057,0.283h0.34l-0.057,0.283h0.342l-0.059,0.283h0.342l-0.057,0.285H500l-0.057,0.283h0.34
			l-0.057,0.283h0.342l-0.059,0.285h0.34l-0.055,0.283h0.34l-0.057,0.281h0.34l-0.057,0.285h0.34l-0.055,0.283h0.34l-0.057,0.285
			h0.338l-0.057,0.283h0.342l-0.057,0.283h0.34l-0.057,0.283h0.34l-0.057,0.283h0.342l-0.057,0.285h0.34l-0.057,0.283h0.34
			l-0.057,0.283h0.342l-0.059,0.285h0.342l-0.057,0.283h0.34l-0.057,0.283h0.342l-0.059,0.283h0.34l-0.057,0.283h0.34l-0.055,0.283
			h0.34l-0.057,0.285h0.34l-0.057,0.283h0.34l-0.057,0.283h0.342l-0.059,0.283h0.342l-0.057,0.283h0.34l-0.057,0.285h0.34
			l-0.057,0.283h0.342l-0.059,0.285h0.34l-0.057,0.283h0.342l-0.057,0.283h0.34l-0.057,0.283h0.34l-0.057,0.283h0.342l-0.057,0.283
			h0.34l-0.057,0.285h0.34l-0.057,0.283h0.342l-0.057,0.285h0.338l-0.055,0.281h53.566l1.857-9.434
			c0.082,0.018,0.162,0.027,0.242,0.045l-0.043,0.223c0.111,0.023,0.215,0.039,0.326,0.062l-0.045,0.221
			c0.111,0.023,0.217,0.039,0.328,0.062l-0.045,0.221c0.111,0.023,0.217,0.039,0.328,0.062l-0.043,0.223
			c0.111,0.023,0.217,0.039,0.326,0.061l-0.043,0.223c0.111,0.023,0.217,0.039,0.326,0.061l-0.043,0.223
			c0.111,0.023,0.217,0.037,0.328,0.061l-0.043,0.223c0.111,0.023,0.217,0.039,0.326,0.062l-0.043,0.221
			c0.111,0.023,0.217,0.039,0.326,0.062l-0.043,0.223c0.111,0.023,0.215,0.039,0.326,0.062l-0.043,0.221
			c0.111,0.023,0.217,0.039,0.326,0.062l-0.043,0.221c0.111,0.023,0.217,0.039,0.326,0.062l-0.043,0.221
			c0.111,0.023,0.217,0.039,0.328,0.062l-0.043,0.223c0.111,0.021,0.217,0.037,0.328,0.061l-0.045,0.223
			c0.111,0.023,0.217,0.039,0.328,0.062l-0.043,0.221c0.111,0.023,0.215,0.039,0.326,0.062l-0.045,0.221
			c0.111,0.023,0.217,0.039,0.328,0.062l-0.045,0.223c0.111,0.023,0.217,0.039,0.328,0.062l-0.043,0.221
			c0.111,0.023,0.217,0.039,0.326,0.061l-0.043,0.225c0.111,0.021,0.217,0.037,0.328,0.061l-0.043,0.221
			c0.111,0.023,0.217,0.039,0.326,0.062l-0.043,0.221c0.111,0.023,0.217,0.039,0.326,0.062l-0.043,0.221
			c0.111,0.023,0.217,0.039,0.328,0.062l-0.045,0.223c0.111,0.023,0.217,0.039,0.326,0.062l-0.043,0.221
			c0.111,0.023,0.219,0.039,0.328,0.062l-0.043,0.223c0.111,0.023,0.217,0.039,0.326,0.061l-0.043,0.223
			c0.111,0.023,0.217,0.037,0.328,0.061l-0.045,0.223c0.111,0.023,0.217,0.039,0.328,0.062l-0.043,0.221
			c0.111,0.023,0.215,0.039,0.326,0.062l-0.043,0.221c0.111,0.023,0.215,0.039,0.326,0.062l-0.043,0.223
			c0.111,0.023,0.217,0.039,0.326,0.062l-0.043,0.221c8.43,1.789,16.264,2.682,23.49,2.682c8.758,0,15.879-1.242,21.352-3.721
			c5.479-2.482,9.758-6,12.842-10.566c3.084-4.559,4.629-9.305,4.629-14.23c0-4.27-1.24-7.861-3.723-10.783
			C632.789,111.566,632.387,111.139,631.969,110.711z"/>
		<polygon fill="#2B2C2D" points="437.785,71.554 437.654,71.492 426.844,125.559 418.646,125.559 418.215,127.715 418.555,127.715 
			418.498,127.998 418.838,127.998 418.781,128.281 419.123,128.281 419.066,128.564 419.406,128.564 419.35,128.85 419.689,128.85 
			419.633,129.133 419.973,129.133 419.916,129.416 420.258,129.416 420.201,129.701 420.541,129.701 420.484,129.984 
			420.824,129.984 420.768,130.266 421.109,130.266 421.051,130.551 421.391,130.551 421.334,130.834 421.676,130.834 
			421.619,131.119 421.957,131.119 421.902,131.402 422.242,131.402 422.186,131.686 422.527,131.686 422.471,131.969 
			422.809,131.969 422.754,132.252 423.092,132.252 423.035,132.535 423.377,132.535 423.32,132.82 423.66,132.82 423.604,133.105 
			423.943,133.105 423.887,133.389 424.229,133.389 424.172,133.672 424.512,133.672 424.455,133.955 424.797,133.955 
			424.738,134.238 425.078,134.238 425.021,134.521 425.363,134.521 425.305,134.807 425.646,134.807 425.59,135.09 425.93,135.09 
			425.873,135.373 426.215,135.373 426.156,135.658 426.496,135.658 426.441,135.939 426.781,135.939 426.725,136.223 
			427.066,136.223 427.008,136.508 427.348,136.508 427.291,136.791 427.633,136.791 427.576,137.076 427.916,137.076 
			427.859,137.359 428.199,137.359 428.143,137.643 428.482,137.643 428.426,137.926 428.768,137.926 428.709,138.209 
			429.051,138.209 428.994,138.494 429.334,138.494 429.277,138.777 429.617,138.777 429.561,139.061 429.902,139.061 
			429.844,139.346 430.186,139.346 430.129,139.629 430.469,139.629 430.412,139.91 430.754,139.91 430.695,140.195 
			431.035,140.195 430.979,140.479 431.32,140.479 431.264,140.764 431.604,140.764 431.547,141.047 431.887,141.047 431.83,141.33 
			432.17,141.33 432.113,141.613 432.455,141.613 432.396,141.896 432.738,141.896 432.68,142.182 433.021,142.182 432.965,142.465 
			433.305,142.465 433.248,142.748 433.59,142.748 433.533,143.033 433.873,143.033 433.816,143.316 434.156,143.316 434.1,143.6 
			434.441,143.6 434.383,143.883 434.723,143.883 434.666,144.166 435.008,144.166 434.951,144.449 435.291,144.449 
			435.234,144.734 435.574,144.734 435.518,145.018 435.859,145.018 435.803,145.301 436.143,145.301 436.086,145.584 
			436.426,145.584 436.369,145.867 436.711,145.867 436.652,146.152 436.992,146.152 436.936,146.436 437.277,146.436 
			437.219,146.721 437.561,146.721 437.504,147.004 437.844,147.004 437.787,147.287 438.127,147.287 438.07,147.57 438.41,147.57 
			438.354,147.854 438.695,147.854 438.639,148.137 438.979,148.137 438.922,148.422 439.262,148.422 439.205,148.705 
			439.547,148.705 439.488,148.99 439.83,148.99 439.773,149.271 450.557,149.271 456.012,121.998 		"/>
		<polygon fill="#2B2C2D" points="466.277,96.868 466.4,96.821 471.67,70.384 470.893,68.26 470.713,68.26 470.609,67.977 
			470.43,67.977 470.326,67.693 470.145,67.693 470.041,67.41 469.861,67.41 469.758,67.125 469.578,67.125 469.475,66.842 
			469.295,66.842 469.191,66.559 469.012,66.559 468.906,66.275 468.729,66.275 468.625,65.992 468.443,65.992 468.34,65.708 
			468.16,65.708 468.057,65.423 467.877,65.423 467.773,65.14 467.592,65.14 467.488,64.856 467.309,64.856 467.205,64.573 
			467.025,64.573 466.922,64.29 466.742,64.29 466.639,64.005 466.459,64.005 466.355,63.722 466.176,63.722 466.072,63.439 
			465.891,63.439 465.787,63.155 465.607,63.155 465.504,62.87 465.324,62.87 465.221,62.586 465.041,62.586 464.936,62.304 
			464.758,62.304 464.654,62.021 464.473,62.021 464.369,61.738 464.189,61.738 464.086,61.453 463.904,61.453 463.801,61.168 
			463.621,61.168 463.518,60.885 463.338,60.885 463.234,60.602 463.055,60.602 462.951,60.318 462.771,60.318 462.668,60.035 
			462.486,60.035 462.383,59.751 462.203,59.751 462.1,59.467 461.92,59.467 461.816,59.182 461.637,59.182 461.533,58.899 
			461.352,58.899 461.248,58.616 461.07,58.616 460.965,58.333 460.785,58.333 460.682,58.048 460.502,58.048 460.398,57.765 
			460.219,57.765 460.113,57.481 459.934,57.481 459.83,57.198 459.65,57.198 459.547,56.915 459.367,56.915 459.262,56.63 
			459.084,56.63 458.98,56.347 458.801,56.347 458.697,56.064 458.516,56.064 458.412,55.779 458.232,55.779 458.129,55.497 
			457.947,55.497 457.844,55.213 457.664,55.213 457.561,54.928 457.381,54.928 457.277,54.645 457.098,54.645 456.994,54.361 
			456.814,54.361 456.711,54.078 456.529,54.078 456.426,53.793 456.246,53.793 456.143,53.51 455.963,53.51 455.859,53.227 
			455.68,53.227 455.576,52.943 455.396,52.943 455.291,52.66 455.111,52.66 455.008,52.376 454.828,52.376 454.725,52.091 
			454.545,52.091 454.441,51.808 454.262,51.808 454.158,51.524 453.977,51.524 453.873,51.241 453.693,51.241 453.59,50.958 
			453.41,50.958 453.307,50.673 453.127,50.673 453.023,50.39 452.842,50.39 452.738,50.106 452.559,50.106 452.455,49.823 
			452.275,49.823 452.172,49.54 451.992,49.54 451.889,49.254 451.707,49.254 451.604,48.972 451.424,48.972 451.32,48.689 
			451.141,48.689 451.037,48.404 450.857,48.404 450.754,48.121 450.574,48.121 450.471,47.837 450.291,47.837 450.188,47.555 
			450.006,47.555 449.902,47.269 449.723,47.269 449.619,46.986 449.439,46.986 449.336,46.703 447.967,46.703 		"/>
	</g>
</g>
</svg>
