<?xml version="1.0" encoding="utf-8"?>
<!-- Generator: Adobe Illustrator 16.0.4, SVG Export Plug-In . SVG Version: 6.00 Build 0)  -->
<!DOCTYPE svg PUBLIC "-//W3C//DTD SVG 1.1//EN" "http://www.w3.org/Graphics/SVG/1.1/DTD/svg11.dtd">
<svg version="1.1" id="Layer_1" xmlns="http://www.w3.org/2000/svg" xmlns:xlink="http://www.w3.org/1999/xlink" x="0px" y="0px"
	 width="360px" height="236px" viewBox="0 0 360 236" enable-background="new 0 0 360 236" xml:space="preserve">
<g>
	<g>
		<path fill="#2B2C2D" d="M160.134,82.084c4.451,0,8.383-2.16,11.796-6.484c2.118-2.685,3.988-6.308,5.615-10.863
			c0.501-1.796,1.027-3.484,1.584-5.05c0.389-1.389,0.767-2.82,1.122-4.342c2.134-9.177,3.201-16.175,3.201-20.992
			c0-5.217-0.939-9.149-2.817-11.795c-1.881-2.644-4.462-3.969-7.747-3.969c-4.27,0-8.129,2.053-11.577,6.159
			c-3.449,4.105-6.278,10.821-8.484,20.143c-2.208,9.324-3.312,16.467-3.312,21.43c0,5.221,0.939,9.152,2.819,11.798
			C154.212,80.761,156.812,82.084,160.134,82.084z"/>
		<polygon fill="#2B2C2D" points="223.059,11.986 219.283,61.174 219.599,61.174 234.486,31.397 244.658,31.397 244.668,31.275 
			244.361,31.275 244.383,30.991 244.078,30.991 244.101,30.708 243.796,30.708 243.817,30.424 243.513,30.424 243.534,30.141 
			243.228,30.141 243.249,29.857 242.944,29.857 242.967,29.574 242.66,29.574 242.682,29.29 242.377,29.29 242.398,29.006 
			242.094,29.006 242.115,28.722 241.81,28.722 241.831,28.439 241.526,28.439 241.548,28.155 241.242,28.155 241.264,27.871 
			240.959,27.871 240.98,27.587 240.676,27.587 240.697,27.304 240.391,27.304 240.412,27.02 240.107,27.02 240.13,26.737 
			239.823,26.737 239.845,26.453 239.54,26.453 239.562,26.169 239.256,26.169 239.277,25.886 238.973,25.886 238.994,25.602 
			238.689,25.602 238.711,25.318 238.406,25.318 238.428,25.035 238.122,25.035 238.144,24.75 237.839,24.75 237.86,24.468 
			237.554,24.468 237.576,24.183 237.271,24.183 237.293,23.9 236.988,23.9 237.01,23.616 236.703,23.616 236.725,23.332 
			236.42,23.332 236.442,23.049 236.137,23.049 236.159,22.765 235.853,22.765 235.874,22.481 235.568,22.481 235.59,22.198 
			235.286,22.198 235.309,21.915 235.002,21.915 235.023,21.631 234.717,21.631 234.739,21.348 234.435,21.348 234.456,21.063 
			234.151,21.063 234.173,20.78 233.866,20.78 233.888,20.496 233.583,20.496 233.605,20.212 233.301,20.212 233.322,19.929 
			233.016,19.929 233.037,19.645 232.732,19.645 232.754,19.361 232.448,19.361 232.47,19.078 232.165,19.078 232.187,18.794 
			231.882,18.794 231.903,18.511 231.599,18.511 231.62,18.227 231.314,18.227 231.336,17.943 231.029,17.943 231.051,17.66 
			230.748,17.66 230.77,17.376 230.464,17.376 230.485,17.092 230.179,17.092 230.2,16.809 229.896,16.809 229.917,16.525 
			229.612,16.525 229.635,16.242 229.328,16.242 229.35,15.958 229.045,15.958 229.066,15.674 228.762,15.674 228.783,15.39 
			228.478,15.39 228.499,15.106 228.194,15.106 228.216,14.823 227.909,14.823 227.932,14.539 227.627,14.539 227.648,14.255 
			227.344,14.255 227.365,13.973 227.059,13.973 227.08,13.688 226.775,13.688 226.798,13.405 226.491,13.405 226.513,13.122 
			226.208,13.122 226.229,12.838 225.925,12.838 225.946,12.553 225.641,12.553 225.662,12.27 225.357,12.27 225.379,11.986 		"/>
		<path fill="#2B2C2D" d="M109.669,21.517c-1.204-0.603-4.411-0.903-9.626-0.903h-5.25l-5.264,26.329h3.008
			c3.794,0,7.231-0.756,10.316-2.271c3.082-1.514,5.573-3.867,7.47-7.062c1.897-3.191,2.846-6.303,2.846-9.333
			c0-1.604-0.284-2.983-0.849-4.132C111.757,22.995,110.873,22.119,109.669,21.517z"/>
		<polygon fill="#2B2C2D" points="245.18,31.843 247.351,62.707 247.447,62.707 254.684,40.989 254.679,40.927 254.414,40.927 
			254.395,40.645 254.132,40.645 254.111,40.361 253.849,40.361 253.828,40.077 253.565,40.077 253.545,39.793 253.28,39.793 
			253.261,39.51 252.996,39.51 252.976,39.226 252.715,39.226 252.694,38.943 252.43,38.943 252.41,38.659 252.146,38.659 
			252.125,38.375 251.862,38.375 251.842,38.091 251.579,38.091 251.559,37.808 251.295,37.808 251.274,37.523 251.012,37.523 
			250.991,37.24 250.729,37.24 250.708,36.957 250.443,36.957 250.424,36.673 250.161,36.673 250.141,36.391 249.876,36.391 
			249.856,36.106 249.593,36.106 249.573,35.822 249.31,35.822 249.29,35.538 249.025,35.538 249.005,35.255 248.742,35.255 
			248.722,34.971 248.458,34.971 248.438,34.688 248.175,34.688 248.154,34.404 247.892,34.404 247.871,34.121 247.606,34.121 
			247.587,33.837 247.324,33.837 247.304,33.553 246.938,33.553 246.938,33.544 246.633,33.544 246.654,33.261 246.348,33.261 
			246.369,32.978 246.064,32.978 246.086,32.694 245.78,32.694 245.802,32.41 245.497,32.41 245.519,32.127 245.214,32.127 
			245.235,31.843 		"/>
		<path fill="#2B2C2D" d="M70.592,11.907l-2.31,11.494c-7.772-3.208-14.305-4.812-19.596-4.812c-5.474,0-10.529,1.522-15.162,4.568
			c-4.633,3.045-8.585,8.128-11.85,15.257c-3.266,7.129-4.897,14.118-4.897,20.973c0,6.601,1.75,11.906,5.253,15.916
			c3.5,4.011,8.168,6.015,14.007,6.015c1.444,0,2.954-0.107,4.516-0.303c0.297-6.186,1.901-12.48,4.835-18.887
			c3.266-7.128,7.217-12.212,11.85-15.256c4.634-3.046,9.689-4.568,15.163-4.568c0.599,0,1.222,0.031,1.854,0.073l4.747-23.735
			c-0.006-0.001-0.012-0.002-0.019-0.004l0.042-0.209c-0.106-0.028-0.22-0.046-0.326-0.074l0.042-0.209
			c-0.106-0.028-0.219-0.046-0.326-0.074l0.042-0.21c-0.106-0.028-0.22-0.046-0.326-0.074l0.042-0.208
			c-0.106-0.028-0.22-0.046-0.326-0.074l0.042-0.21c-0.106-0.028-0.219-0.046-0.325-0.074l0.042-0.209
			c-0.106-0.028-0.22-0.046-0.326-0.074l0.042-0.209c-0.107-0.028-0.221-0.046-0.327-0.074l0.042-0.21
			c-0.106-0.028-0.219-0.047-0.325-0.075l0.042-0.208c-0.106-0.028-0.219-0.046-0.325-0.074l0.042-0.21
			c-0.106-0.028-0.22-0.046-0.326-0.074l0.042-0.208c-0.106-0.029-0.219-0.046-0.326-0.074l0.043-0.21
			c-0.107-0.028-0.221-0.046-0.327-0.074l0.042-0.21c-0.106-0.028-0.22-0.046-0.326-0.075l0.042-0.208
			c-0.106-0.028-0.219-0.046-0.325-0.074l0.042-0.209c-0.106-0.029-0.22-0.047-0.326-0.075l0.042-0.208
			c-0.106-0.029-0.219-0.046-0.326-0.074l0.043-0.21c-0.106-0.028-0.22-0.046-0.326-0.074l0.042-0.208
			c-0.106-0.028-0.219-0.046-0.326-0.074l0.043-0.21c-0.107-0.029-0.22-0.046-0.327-0.074l0.042-0.209
			c-0.106-0.029-0.22-0.046-0.327-0.075l0.042-0.209c-0.106-0.028-0.219-0.046-0.325-0.074l0.042-0.208
			C72.263,12.255,71.418,12.094,70.592,11.907z"/>
		<path fill="#2B2C2D" d="M346.596,75.992c-0.109-0.115-0.228-0.23-0.34-0.345c-0.087-0.092-0.185-0.183-0.274-0.274
			c-0.091-0.096-0.193-0.192-0.287-0.288c-0.093-0.098-0.196-0.195-0.293-0.293c-0.085-0.09-0.181-0.179-0.269-0.269
			c-0.1-0.103-0.206-0.205-0.307-0.307c-0.083-0.087-0.178-0.174-0.263-0.261c-0.09-0.096-0.19-0.19-0.283-0.285
			c-0.098-0.102-0.204-0.202-0.303-0.304c-0.086-0.087-0.179-0.175-0.265-0.262c-0.093-0.097-0.195-0.192-0.289-0.29
			c-0.092-0.096-0.193-0.191-0.288-0.288c-0.087-0.091-0.185-0.182-0.273-0.273c-0.097-0.102-0.201-0.201-0.301-0.302
			c-0.086-0.09-0.183-0.18-0.271-0.27c-0.09-0.093-0.188-0.186-0.28-0.279c-0.094-0.101-0.199-0.2-0.298-0.299
			c-0.169-0.177-0.353-0.351-0.529-0.528c-0.105-0.11-0.22-0.221-0.329-0.332c-0.089-0.092-0.187-0.184-0.277-0.275
			c-0.079-0.083-0.169-0.167-0.249-0.25c-0.193-0.202-0.4-0.402-0.604-0.603c-0.085-0.09-0.179-0.178-0.268-0.266
			c-0.09-0.095-0.19-0.189-0.283-0.284c-0.096-0.102-0.202-0.201-0.3-0.303c-0.087-0.089-0.183-0.178-0.269-0.268
			c-0.092-0.095-0.19-0.188-0.283-0.283c-0.097-0.101-0.201-0.2-0.299-0.299c-0.087-0.091-0.183-0.18-0.271-0.27
			c-0.095-0.099-0.198-0.197-0.296-0.295c-0.086-0.091-0.183-0.181-0.272-0.271c-0.093-0.098-0.196-0.195-0.292-0.294
			c-0.087-0.091-0.184-0.182-0.273-0.273c-0.092-0.095-0.192-0.189-0.285-0.285c-0.094-0.1-0.199-0.199-0.297-0.297
			c-0.085-0.089-0.18-0.178-0.268-0.266c-0.093-0.098-0.194-0.194-0.289-0.291c-0.093-0.096-0.193-0.192-0.288-0.288
			c-0.088-0.092-0.186-0.183-0.275-0.275c-0.093-0.098-0.196-0.194-0.29-0.292c-0.09-0.094-0.189-0.187-0.282-0.28
			c-0.09-0.095-0.188-0.188-0.281-0.283c-0.09-0.094-0.188-0.187-0.281-0.281c-0.093-0.099-0.198-0.197-0.294-0.295
			c-0.088-0.092-0.186-0.183-0.277-0.275c-0.086-0.091-0.183-0.182-0.271-0.273c-0.098-0.103-0.206-0.205-0.307-0.307
			c-0.092-0.096-0.193-0.191-0.288-0.288c-0.082-0.085-0.175-0.17-0.258-0.255c-0.092-0.098-0.193-0.193-0.288-0.29
			c-0.096-0.102-0.202-0.201-0.302-0.302c-0.085-0.09-0.181-0.179-0.269-0.269c-0.092-0.095-0.192-0.19-0.285-0.285
			c-0.094-0.098-0.198-0.196-0.294-0.294c-0.086-0.091-0.183-0.18-0.271-0.27c-0.095-0.099-0.198-0.197-0.295-0.295
			c-0.087-0.09-0.183-0.18-0.271-0.271c-0.091-0.096-0.191-0.191-0.284-0.286c-0.095-0.099-0.198-0.196-0.294-0.294
			c-0.09-0.093-0.188-0.186-0.278-0.279c-0.092-0.095-0.192-0.188-0.283-0.283c-0.09-0.093-0.188-0.185-0.278-0.277
			c-0.095-0.1-0.199-0.2-0.297-0.299c-0.092-0.095-0.192-0.188-0.285-0.283c-0.085-0.089-0.179-0.178-0.268-0.267
			c-0.098-0.103-0.204-0.204-0.305-0.306c-0.085-0.088-0.179-0.176-0.266-0.266c-0.09-0.094-0.188-0.188-0.281-0.281
			c-0.09-0.095-0.19-0.189-0.283-0.284c-0.098-0.102-0.204-0.204-0.305-0.306c-0.087-0.091-0.186-0.182-0.274-0.273
			c-0.09-0.093-0.187-0.185-0.278-0.278c-0.366-0.383-0.753-0.766-1.157-1.146c-0.199-0.193-0.424-0.384-0.632-0.576
			c0.102,0.115,0.213,0.229,0.312,0.344c2.479,2.919,3.721,6.514,3.721,10.783c0,4.927-1.545,9.671-4.628,14.231
			c-3.086,4.565-7.364,8.084-12.842,10.565c-5.474,2.482-12.594,3.722-21.352,3.722c-7.229,0-15.061-0.893-23.49-2.682l2.682-13.574
			c5.321,2.351,10.487,3.885,15.507,4.641l8.428-25.301c0.034,0.034,0.075,0.067,0.109,0.101c0.095,0.095,0.186,0.19,0.286,0.286
			c0.092,0.092,0.18,0.184,0.275,0.276c0.098,0.097,0.192,0.195,0.294,0.293c0.092,0.093,0.181,0.185,0.277,0.278
			c0.096,0.096,0.187,0.191,0.287,0.288c0.093,0.094,0.183,0.186,0.28,0.28c0.096,0.096,0.188,0.192,0.289,0.29
			c0.092,0.092,0.181,0.183,0.275,0.275c0.096,0.096,0.188,0.19,0.286,0.287c0.096,0.096,0.188,0.191,0.289,0.288
			c0.092,0.093,0.182,0.184,0.277,0.277c0.094,0.095,0.186,0.19,0.284,0.286c0.096,0.096,0.189,0.191,0.288,0.288
			c0.094,0.094,0.184,0.187,0.281,0.281c0.093,0.093,0.183,0.186,0.278,0.279c0.098,0.097,0.192,0.194,0.293,0.292
			c0.096,0.096,0.188,0.191,0.289,0.288c0.09,0.089,0.175,0.179,0.268,0.268c0.098,0.096,0.188,0.192,0.289,0.29
			c0.096,0.096,0.188,0.191,0.288,0.288c0.093,0.094,0.184,0.187,0.281,0.281c0.093,0.093,0.181,0.185,0.276,0.278
			c0.097,0.097,0.19,0.193,0.291,0.291c0.095,0.094,0.185,0.188,0.283,0.283c0.093,0.094,0.183,0.187,0.28,0.281
			c0.098,0.097,0.19,0.192,0.291,0.29c0.093,0.093,0.181,0.184,0.276,0.277c0.095,0.095,0.185,0.188,0.283,0.283
			c0.098,0.098,0.191,0.195,0.294,0.293c0.093,0.093,0.183,0.186,0.28,0.279c0.091,0.093,0.181,0.185,0.278,0.279
			c0.094,0.096,0.186,0.19,0.284,0.286c0.096,0.096,0.188,0.191,0.288,0.287c0.093,0.094,0.183,0.187,0.279,0.28
			c0.094,0.093,0.183,0.186,0.28,0.28c0.098,0.098,0.193,0.196,0.296,0.294c0.091,0.091,0.179,0.183,0.273,0.275
			c0.093,0.093,0.181,0.185,0.278,0.278c0.1,0.1,0.196,0.2,0.302,0.301c0.09,0.09,0.177,0.18,0.27,0.27
			c0.096,0.095,0.187,0.19,0.286,0.286c0.096,0.096,0.188,0.192,0.289,0.289c0.093,0.093,0.183,0.185,0.278,0.279
			c0.096,0.096,0.188,0.19,0.286,0.286c0.095,0.094,0.185,0.187,0.281,0.281c1.13,1.132,2.588,2.32,4.336,3.558
			c0.586-1.291,0.917-2.595,0.917-3.918c0-1.205-0.329-2.463-0.985-3.777c-0.694-1.314-2.885-3.12-6.569-5.419l-13.465-8.21
			c-5.364-3.284-8.778-6.229-10.235-8.84c-1.462-2.608-2.19-5.446-2.19-8.512c0-5.845,2.277-11.189,6.808-16.036h-0.287l0.094-0.284
			h-0.377l0.094-0.284h-0.379l0.095-0.284h-0.378l0.095-0.284h-0.377l0.094-0.283h-0.379l0.095-0.284H281.6l0.095-0.284h-0.378
			l0.095-0.284h-0.379l0.095-0.284h-0.378l0.095-0.283h-0.379l0.094-0.285h-0.377l0.094-0.284h-0.379l0.095-0.282h-0.378
			l0.095-0.285h-0.377l0.094-0.283h-0.377l0.094-0.283h-0.379l0.095-0.284h-0.378l0.095-0.285h-0.379l0.095-0.283h-0.378
			l0.095-0.284h-2.873l-26.268,78.855h-12.152l-2.736-38.864h-0.109l-19.432,38.864h-11.062l4.261-62.36
			c-0.036-0.034-0.068-0.068-0.104-0.102c-0.092-0.095-0.187-0.188-0.28-0.28c-0.093-0.097-0.188-0.192-0.285-0.286
			c-0.093-0.096-0.188-0.19-0.284-0.284c-0.093-0.096-0.188-0.19-0.283-0.284c-0.093-0.095-0.188-0.189-0.281-0.282
			c-0.095-0.097-0.19-0.192-0.286-0.286c-0.093-0.095-0.188-0.189-0.283-0.283c-0.093-0.096-0.188-0.19-0.283-0.284
			c-0.095-0.096-0.188-0.19-0.284-0.284c-0.095-0.097-0.19-0.192-0.286-0.286c-0.092-0.094-0.186-0.188-0.279-0.279
			c-0.094-0.096-0.189-0.192-0.286-0.285c-0.093-0.097-0.188-0.191-0.284-0.285c-0.093-0.095-0.188-0.189-0.281-0.283
			c-0.095-0.096-0.189-0.19-0.285-0.283c-0.093-0.097-0.188-0.192-0.284-0.286c-0.093-0.096-0.188-0.19-0.283-0.283
			c-0.095-0.097-0.19-0.192-0.286-0.286c-0.092-0.094-0.185-0.187-0.277-0.278c-0.097-0.099-0.194-0.196-0.294-0.292
			c-0.089-0.093-0.182-0.186-0.276-0.277c-0.093-0.095-0.188-0.19-0.283-0.283c-0.095-0.097-0.19-0.193-0.289-0.289
			c-0.09-0.093-0.181-0.184-0.273-0.274c-0.097-0.099-0.193-0.196-0.291-0.292c-0.092-0.095-0.186-0.188-0.28-0.279
			c-0.095-0.098-0.19-0.193-0.288-0.289c-0.093-0.094-0.187-0.188-0.281-0.281c-0.094-0.097-0.188-0.192-0.286-0.286
			c-0.091-0.094-0.184-0.187-0.278-0.279c-0.095-0.097-0.19-0.193-0.288-0.288c-0.093-0.097-0.188-0.191-0.284-0.285
			c-0.093-0.094-0.186-0.187-0.28-0.278c-0.094-0.098-0.19-0.193-0.287-0.288c-0.092-0.095-0.185-0.188-0.278-0.279
			c-0.095-0.097-0.189-0.192-0.285-0.286c-0.095-0.097-0.191-0.193-0.288-0.287c-0.093-0.095-0.186-0.188-0.281-0.28
			c-0.093-0.097-0.188-0.191-0.284-0.286c-0.093-0.095-0.186-0.188-0.282-0.281c-0.093-0.096-0.187-0.191-0.282-0.285
			c-0.095-0.097-0.19-0.192-0.286-0.286c-0.093-0.095-0.188-0.189-0.283-0.282c-0.42-0.431-0.879-0.826-1.348-1.213
			c0.215,0.259,0.456,0.495,0.657,0.768c3.888,5.289,5.827,11.743,5.827,19.364c0,9.081-1.642,18.243-4.925,27.489
			c-3.286,9.245-8.103,16.601-14.451,22.071c-6.349,5.472-14.195,8.205-23.536,8.205c-6.976,0-12.429-1.715-16.412-5.089
			c0.425,0.499,0.852,0.997,1.321,1.445c0.094,0.095,0.188,0.192,0.285,0.285c0.094,0.094,0.187,0.191,0.282,0.282
			c0.096,0.096,0.189,0.193,0.287,0.287c0.094,0.094,0.186,0.19,0.281,0.282c0.095,0.094,0.188,0.191,0.283,0.283
			c0.094,0.095,0.187,0.191,0.283,0.283c0.094,0.094,0.187,0.191,0.282,0.283c0.095,0.095,0.189,0.192,0.286,0.285
			c0.096,0.095,0.188,0.193,0.286,0.286c0.093,0.093,0.184,0.188,0.279,0.28c0.097,0.097,0.191,0.195,0.29,0.289
			c0.093,0.093,0.184,0.188,0.278,0.279c0.095,0.095,0.188,0.192,0.286,0.286c0.095,0.094,0.188,0.192,0.286,0.285
			c0.094,0.094,0.187,0.191,0.283,0.283c0.094,0.094,0.185,0.189,0.28,0.28c0.095,0.096,0.188,0.193,0.287,0.287
			c0.095,0.095,0.187,0.191,0.283,0.284c0.095,0.094,0.188,0.192,0.286,0.285c0.093,0.093,0.185,0.188,0.28,0.281
			c0.096,0.095,0.188,0.192,0.286,0.285c0.094,0.094,0.186,0.19,0.282,0.282c0.095,0.095,0.188,0.193,0.285,0.286
			c0.095,0.094,0.188,0.191,0.284,0.284c0.095,0.095,0.189,0.192,0.286,0.285c0.093,0.093,0.184,0.188,0.279,0.279
			c0.094,0.094,0.187,0.192,0.283,0.284c0.096,0.095,0.189,0.193,0.286,0.286c0.095,0.095,0.189,0.192,0.286,0.286
			c0.094,0.093,0.187,0.189,0.282,0.281c0.094,0.094,0.187,0.191,0.283,0.283c0.094,0.095,0.187,0.192,0.284,0.284
			c0.094,0.094,0.186,0.19,0.282,0.282c0.096,0.096,0.19,0.194,0.288,0.288c0.094,0.094,0.186,0.19,0.282,0.281
			c0.094,0.094,0.186,0.19,0.282,0.282c0.096,0.095,0.188,0.193,0.286,0.286c0.094,0.094,0.186,0.191,0.283,0.283
			c0.094,0.095,0.187,0.191,0.282,0.283c0.096,0.095,0.19,0.193,0.287,0.286c0.092,0.092,0.182,0.187,0.275,0.277
			c0.098,0.098,0.193,0.197,0.293,0.292c0.094,0.094,0.187,0.19,0.282,0.281c0.095,0.095,0.187,0.19,0.283,0.283
			c0.094,0.094,0.186,0.19,0.282,0.282c0.094,0.094,0.186,0.191,0.282,0.283c0.096,0.096,0.189,0.193,0.287,0.287
			c0.095,0.095,0.188,0.192,0.284,0.284c0.094,0.093,0.185,0.189,0.281,0.28c0.095,0.095,0.188,0.192,0.284,0.284
			c0.096,0.097,0.19,0.194,0.288,0.288c0.091,0.092,0.182,0.187,0.275,0.276c0.097,0.097,0.191,0.196,0.29,0.29
			c0.094,0.094,0.186,0.189,0.281,0.282c0.095,0.094,0.188,0.192,0.285,0.284c0.094,0.095,0.188,0.193,0.285,0.285
			c0.094,0.094,0.185,0.189,0.28,0.281c0.096,0.096,0.19,0.194,0.288,0.289c0.094,0.093,0.184,0.188,0.279,0.279
			c0.096,0.096,0.19,0.194,0.289,0.288c0.094,0.094,0.186,0.189,0.281,0.282c0.095,0.094,0.188,0.191,0.283,0.283
			c0.094,0.095,0.187,0.191,0.283,0.283c0.094,0.095,0.187,0.192,0.284,0.285c0.096,0.096,0.19,0.193,0.289,0.288
			c0.092,0.092,0.183,0.187,0.277,0.277c0.096,0.096,0.19,0.195,0.289,0.289c0.093,0.093,0.184,0.188,0.279,0.279
			c0.095,0.095,0.188,0.192,0.285,0.285c0.095,0.095,0.188,0.192,0.285,0.285c0.094,0.094,0.187,0.191,0.283,0.283
			c0.095,0.096,0.189,0.193,0.287,0.287c0.093,0.093,0.184,0.188,0.279,0.278c0.096,0.095,0.188,0.193,0.286,0.286
			c0.094,0.094,0.186,0.191,0.283,0.283c4.05,4.05,9.886,6.083,17.529,6.083c9.343,0,17.187-2.733,23.536-8.205
			c2.863-2.467,5.397-5.338,7.637-8.571h0.193l-0.019,0.283h0.304l-0.019,0.284h0.303l-0.019,0.283h0.301l-0.02,0.284h0.304
			l-0.019,0.284h0.303l-0.02,0.284h0.305l-0.021,0.283h0.304l-0.021,0.285h0.304l-0.019,0.283h0.303l-0.021,0.285h0.302
			l-0.019,0.283h0.304l-0.019,0.284h0.303l-0.02,0.283h0.301l-0.019,0.284h0.304l-0.019,0.284h0.303l-0.019,0.284h0.304
			l-0.021,0.283h0.304l-0.021,0.285h0.303l-0.02,0.283h0.305l-0.021,0.283h0.304l-0.021,0.285h0.304l-0.019,0.283h0.303l-0.02,0.283
			h0.303l-0.021,0.285h0.304l-0.019,0.283h0.303l-0.02,0.284h0.302l-0.019,0.284h0.303l-0.019,0.284h0.303l-0.02,0.284h0.305
			l-0.021,0.283h0.304l-0.021,0.285h0.304l-0.021,0.283h0.302l-0.019,0.283h0.305l-0.021,0.285h0.304l-0.019,0.283h0.303
			l-0.02,0.284h0.302l-0.019,0.283h0.303l-0.019,0.284h0.303l-0.02,0.284h0.305l-0.021,0.284h0.302l-0.019,0.284h0.304l-0.021,0.284
			h0.302l-0.019,0.283h0.303l-0.019,0.284h0.304l-0.021,0.284h0.305l-0.02,0.283h0.301l-0.018,0.284h0.303l-0.019,0.284h0.303
			l-0.02,0.284h0.302l-0.019,0.283h0.305l-0.021,0.285h0.304l-0.021,0.283h11.06l7.51-15.019l0.019,0.269h0.265l0.021,0.283h0.263
			l0.021,0.284h0.263l0.02,0.283h0.265l0.021,0.284h0.263l0.021,0.284h0.263l0.021,0.284h0.264l0.021,0.283h0.263l0.021,0.285h0.265
			l0.02,0.283h0.264l0.02,0.285h0.263l0.021,0.283h0.263l0.021,0.284h0.265l0.02,0.283h0.265l0.021,0.284h0.263l0.021,0.284h0.263
			l0.021,0.284h0.264l0.021,0.283h0.263l0.021,0.285h0.263l0.021,0.283h0.265l0.02,0.283h0.263l0.021,0.285h0.265l0.021,0.283h0.263
			l0.02,0.283h0.265l0.021,0.285h0.261l0.021,0.283h0.265l0.021,0.284h0.264l0.021,0.284h0.263l0.021,0.284h0.263l0.021,0.284h0.265
			l0.02,0.283h0.263l0.021,0.285h0.263l0.021,0.283h0.265l0.02,0.283h0.264l0.02,0.285h0.263l0.021,0.283h0.265l0.021,0.284h0.263
			l0.02,0.283h0.264l0.02,0.284h0.265l0.021,0.284h0.263l0.021,0.284h0.264l0.021,0.284h0.263l0.021,0.284h0.265l0.02,0.283h0.264
			l0.02,0.284h0.263l0.021,0.284h0.265l0.02,0.283h0.264l0.02,0.284h0.264l0.02,0.284h0.265l0.021,0.284h0.263l0.021,0.283h0.264
			l0.021,0.285h0.263l0.021,0.283h12.151l4.362-13.096c0.035,0.007,0.068,0.012,0.103,0.02l-0.044,0.223
			c0.111,0.023,0.217,0.039,0.328,0.062l-0.043,0.221c0.111,0.024,0.216,0.039,0.327,0.062l-0.043,0.221
			c0.11,0.023,0.215,0.039,0.325,0.062l-0.044,0.223c0.111,0.024,0.217,0.039,0.328,0.062l-0.043,0.221
			c0.111,0.024,0.217,0.039,0.328,0.062l-0.044,0.222c0.111,0.024,0.217,0.039,0.327,0.062l-0.044,0.222
			c0.111,0.023,0.217,0.039,0.326,0.062l-0.043,0.221c0.111,0.024,0.217,0.039,0.328,0.062l-0.044,0.222
			c0.111,0.024,0.217,0.039,0.327,0.062l-0.044,0.222c0.111,0.023,0.217,0.039,0.327,0.062l-0.044,0.222
			c0.111,0.024,0.217,0.039,0.328,0.062l-0.043,0.222c0.111,0.023,0.216,0.039,0.326,0.062l-0.043,0.221
			c0.111,0.024,0.216,0.039,0.327,0.062l-0.043,0.222c0.111,0.024,0.217,0.039,0.326,0.062l-0.043,0.222
			c0.111,0.023,0.217,0.039,0.326,0.062l-0.043,0.221c0.111,0.023,0.216,0.039,0.326,0.062l-0.043,0.222
			c0.111,0.024,0.216,0.039,0.327,0.062l-0.043,0.222c0.111,0.023,0.217,0.039,0.326,0.062l-0.043,0.222
			c0.111,0.024,0.217,0.039,0.328,0.062l-0.044,0.222c0.111,0.023,0.217,0.039,0.327,0.062l-0.044,0.221
			c0.111,0.024,0.217,0.039,0.328,0.062l-0.043,0.222c0.111,0.024,0.216,0.039,0.326,0.062l-0.044,0.222
			c0.111,0.023,0.217,0.039,0.327,0.062l-0.044,0.221c0.111,0.024,0.217,0.039,0.328,0.062l-0.043,0.223
			c0.111,0.023,0.217,0.039,0.326,0.062l-0.043,0.222c0.111,0.024,0.216,0.039,0.327,0.062l-0.043,0.221
			c0.111,0.024,0.217,0.039,0.326,0.062l-0.043,0.222c0.111,0.023,0.217,0.039,0.326,0.062l-0.043,0.221
			c0.111,0.024,0.217,0.039,0.328,0.062l-0.044,0.222c0.111,0.024,0.217,0.039,0.326,0.062l-0.043,0.222
			c0.111,0.024,0.217,0.039,0.328,0.062l-0.043,0.221c0.111,0.023,0.216,0.039,0.326,0.062l-0.044,0.223
			c0.111,0.023,0.217,0.039,0.327,0.062l-0.044,0.222c0.111,0.023,0.217,0.039,0.326,0.062l-0.043,0.221
			c0.111,0.024,0.217,0.039,0.328,0.062l-0.043,0.222c0.111,0.023,0.216,0.039,0.326,0.062l-0.044,0.222
			c0.111,0.024,0.217,0.039,0.328,0.062l-0.043,0.221c0.111,0.024,0.217,0.039,0.326,0.062l-0.043,0.222
			c0.111,0.023,0.217,0.039,0.326,0.062l-0.043,0.222c0.111,0.024,0.216,0.039,0.327,0.062l-0.043,0.223
			c0.111,0.023,0.217,0.039,0.326,0.062l-0.043,0.222c0.111,0.024,0.217,0.039,0.328,0.062l-0.044,0.221
			c0.111,0.024,0.217,0.039,0.327,0.062l-0.044,0.222c8.429,1.789,16.261,2.682,23.49,2.682c8.758,0,15.878-1.241,21.353-3.723
			c5.478-2.48,9.756-6,12.842-10.564c3.081-4.56,4.628-9.306,4.628-14.231c0-4.27-1.244-7.862-3.724-10.784
			C347.417,76.849,347.014,76.42,346.596,75.992z"/>
		<path fill="#2B2C2D" d="M357.101,34.127l0.042-0.21c-0.107-0.028-0.219-0.045-0.325-0.072l0.042-0.21
			c-0.107-0.028-0.219-0.046-0.325-0.074l0.042-0.211c-0.106-0.028-0.22-0.046-0.326-0.074l0.041-0.209
			c-0.106-0.028-0.218-0.045-0.324-0.073l0.042-0.21c-0.107-0.028-0.219-0.046-0.325-0.074l0.042-0.209
			c-0.107-0.028-0.22-0.045-0.327-0.073l0.042-0.211c-0.106-0.028-0.218-0.045-0.324-0.073l0.041-0.21
			c-0.106-0.028-0.218-0.045-0.324-0.073l0.041-0.21c-0.106-0.028-0.219-0.045-0.326-0.073l0.042-0.21
			c-0.106-0.028-0.218-0.045-0.325-0.073l0.042-0.211c-0.106-0.028-0.218-0.045-0.324-0.072l0.041-0.21
			c-0.106-0.028-0.22-0.046-0.326-0.074l0.042-0.21c-0.106-0.028-0.22-0.045-0.326-0.073l0.041-0.209
			c-0.106-0.028-0.218-0.046-0.324-0.074l0.042-0.211c-0.107-0.028-0.219-0.046-0.325-0.074l0.042-0.209
			c-0.107-0.028-0.22-0.045-0.327-0.073l0.042-0.21c-0.106-0.028-0.218-0.046-0.324-0.073l0.041-0.21
			c-0.106-0.028-0.218-0.045-0.324-0.073l0.042-0.211c-0.107-0.028-0.22-0.045-0.327-0.073l0.042-0.21
			c-0.106-0.028-0.218-0.045-0.325-0.073l0.042-0.21c-0.106-0.028-0.218-0.045-0.324-0.073l0.041-0.21
			c-0.106-0.028-0.22-0.046-0.326-0.074l0.042-0.21c-0.106-0.028-0.218-0.046-0.325-0.074l0.042-0.21
			c-0.106-0.028-0.218-0.045-0.325-0.073l0.042-0.21c-0.106-0.028-0.22-0.045-0.326-0.073l0.042-0.209
			c-0.107-0.028-0.22-0.046-0.326-0.074l0.041-0.211c-0.104-0.028-0.218-0.046-0.323-0.073l0.042-0.21
			c-0.106-0.028-0.22-0.045-0.326-0.073l0.042-0.21c-0.107-0.028-0.22-0.046-0.327-0.074l0.042-0.21
			c-0.106-0.028-0.218-0.046-0.324-0.074l0.041-0.21c-0.106-0.028-0.218-0.045-0.324-0.073l0.041-0.21
			c-0.106-0.028-0.22-0.046-0.326-0.074l0.042-0.209c-0.106-0.028-0.218-0.045-0.325-0.073l0.042-0.21
			c-0.106-0.028-0.218-0.045-0.325-0.073l0.042-0.211c-0.106-0.028-0.22-0.046-0.326-0.074l0.042-0.209
			c-0.107-0.028-0.219-0.046-0.325-0.074l0.042-0.21c-0.106-0.028-0.218-0.046-0.325-0.074l0.042-0.21
			c-0.106-0.028-0.22-0.045-0.326-0.073l0.042-0.21c-0.107-0.028-0.219-0.045-0.325-0.073l0.042-0.211
			c-0.107-0.028-0.219-0.046-0.325-0.073l0.042-0.21c-0.106-0.028-0.22-0.046-0.326-0.074l0.041-0.211
			c-0.106-0.028-0.218-0.045-0.324-0.073l0.042-0.21c-0.107-0.028-0.219-0.045-0.325-0.073l0.042-0.21
			c-0.107-0.028-0.22-0.046-0.326-0.074l0.041-0.209c-0.106-0.028-0.22-0.045-0.326-0.073l0.042-0.21
			c-0.106-0.028-0.219-0.046-0.325-0.073l0.042-0.21c-0.106-0.028-0.218-0.045-0.325-0.073l0.042-0.211
			c-0.106-0.028-0.22-0.045-0.326-0.073l0.042-0.209c-0.107-0.028-0.219-0.046-0.325-0.074l0.042-0.211
			c-0.107-0.028-0.219-0.046-0.325-0.073l0.042-0.21c-0.106-0.028-0.22-0.046-0.326-0.074l0.041-0.21
			c-0.106-0.028-0.218-0.046-0.324-0.074l0.042-0.209c-0.107-0.028-0.219-0.046-0.325-0.074l0.042-0.21
			c-0.107-0.028-0.22-0.046-0.326-0.074l0.041-0.209c-0.106-0.028-0.218-0.046-0.324-0.074l0.041-0.211
			c-0.106-0.028-0.218-0.045-0.324-0.073l0.042-0.21c-0.107-0.028-0.22-0.045-0.327-0.073l0.042-0.21
			c-0.106-0.028-0.22-0.046-0.326-0.073l0.042-0.21c-0.107-0.028-0.219-0.046-0.325-0.074l0.042-0.21
			c-0.106-0.028-0.219-0.045-0.325-0.073l0.042-0.209c-0.106-0.028-0.22-0.046-0.326-0.074l0.042-0.211
			c-0.107-0.028-0.219-0.046-0.325-0.074l0.042-0.209c-0.107-0.028-0.219-0.045-0.325-0.073l0.042-0.21
			c-0.107-0.028-0.22-0.046-0.326-0.074l0.041-0.209c-0.106-0.028-0.218-0.046-0.324-0.073l0.041-0.21
			c-0.106-0.028-0.219-0.046-0.326-0.074l0.042-0.21c-0.106-0.028-0.218-0.045-0.325-0.073l0.042-0.21
			c-0.106-0.028-0.218-0.045-0.324-0.073l0.041-0.21c-0.106-0.028-0.218-0.045-0.324-0.073l0.041-0.21
			c-0.106-0.028-0.219-0.046-0.326-0.073l0.042-0.211c-0.106-0.028-0.22-0.045-0.326-0.073l0.042-0.21
			c-0.107-0.028-0.219-0.045-0.325-0.073l0.042-0.21c-0.107-0.028-0.22-0.045-0.327-0.073l0.042-0.21
			c-0.106-0.028-0.218-0.046-0.324-0.074l0.041-0.21c-0.106-0.028-0.218-0.045-0.324-0.073l0.042-0.209
			c-0.811-0.212-1.652-0.37-2.479-0.557l-2.251,11.21c-3.065-1.35-5.638-2.298-7.717-2.846c-2.08-0.547-4.347-0.994-6.792-1.341
			c-2.442-0.346-4.724-0.521-6.842-0.521c-5.327,0-9.508,0.969-12.535,2.902c-3.032,1.934-4.543,4.324-4.543,7.17
			c0,1.169,0.265,2.29,0.792,3.366c0.53,1.078,2.198,2.455,5.01,4.133l14.944,8.977c1.603,0.955,3.068,1.917,4.414,2.89
			c0.746-1.027,1.764-1.972,3.097-2.822c3.027-1.933,7.209-2.901,12.534-2.901c2.117,0,4.4,0.175,6.843,0.52
			c2.446,0.347,4.712,0.793,6.791,1.341c2.08,0.547,4.653,1.497,7.719,2.846l2.572-12.808
			C357.32,34.173,357.207,34.155,357.101,34.127z"/>
		<path fill="#2B2C2D" d="M134.373,77.425c-1.239-3.521-1.881-7.443-1.881-11.8c0-9.079,1.643-18.243,4.926-27.486
			c1.114-3.135,2.419-6.035,3.887-8.738c-0.008-0.008-0.016-0.016-0.024-0.024c-0.089-0.096-0.187-0.185-0.279-0.278
			c-0.092-0.1-0.192-0.192-0.288-0.289c-0.089-0.096-0.188-0.186-0.279-0.279c-0.091-0.098-0.191-0.19-0.286-0.285
			c-0.09-0.098-0.19-0.189-0.284-0.283c-0.09-0.099-0.191-0.19-0.286-0.286c-0.088-0.095-0.186-0.183-0.277-0.276
			c-0.093-0.1-0.194-0.194-0.291-0.292c-0.089-0.096-0.187-0.185-0.279-0.278c-0.091-0.099-0.191-0.19-0.285-0.287
			c-0.092-0.099-0.193-0.191-0.289-0.288c-0.087-0.094-0.184-0.183-0.275-0.274c-0.092-0.099-0.193-0.192-0.288-0.289
			c-0.091-0.098-0.189-0.188-0.284-0.284c-0.09-0.098-0.19-0.189-0.284-0.285c-0.091-0.098-0.192-0.189-0.286-0.286
			c-0.088-0.095-0.186-0.184-0.277-0.277c-0.093-0.1-0.194-0.192-0.29-0.29c-0.09-0.097-0.189-0.188-0.283-0.283
			c-0.089-0.096-0.187-0.185-0.278-0.278c-0.093-0.1-0.194-0.193-0.29-0.291c-0.089-0.095-0.186-0.184-0.278-0.277
			c-0.091-0.099-0.191-0.191-0.287-0.287c-0.09-0.098-0.189-0.188-0.282-0.283c-0.091-0.098-0.19-0.188-0.283-0.283
			c-0.092-0.1-0.193-0.192-0.29-0.289c-0.088-0.095-0.186-0.183-0.277-0.276c-0.091-0.099-0.191-0.191-0.287-0.288
			c-0.091-0.097-0.189-0.188-0.284-0.283c-0.09-0.098-0.191-0.189-0.285-0.285c-0.089-0.097-0.187-0.186-0.279-0.28
			c-0.091-0.098-0.19-0.189-0.284-0.284c-0.092-0.1-0.193-0.192-0.289-0.289c-0.089-0.096-0.187-0.185-0.278-0.278
			c-0.091-0.097-0.191-0.189-0.285-0.285c-0.091-0.099-0.192-0.19-0.287-0.287c-0.089-0.097-0.189-0.188-0.282-0.282
			c-0.09-0.097-0.188-0.187-0.281-0.28c-0.09-0.098-0.189-0.189-0.284-0.285c-0.092-0.099-0.193-0.192-0.289-0.288
			c-0.089-0.097-0.188-0.187-0.281-0.281c-0.092-0.099-0.192-0.191-0.288-0.287c-0.088-0.095-0.186-0.184-0.277-0.277
			c-0.374-0.404-0.771-0.789-1.202-1.149c-0.095-0.08-0.204-0.146-0.301-0.224c1.983,2.525,2.99,5.779,2.99,9.782
			c0,3.431-0.75,6.87-2.246,10.317c-1.499,3.449-3.646,6.697-6.442,9.744c-2.793,3.048-6.585,5.758-11.37,8.128l13.436,37.057
			h-18.678L93.384,57.726h-6.012l-6.623,33.116H64.562l1.27-6.349c-0.018,0.007-0.035,0.013-0.052,0.021l0.088-0.436
			c-0.126,0.054-0.247,0.099-0.372,0.152l0.088-0.436c-0.126,0.054-0.247,0.099-0.372,0.152l0.088-0.436
			c-0.125,0.054-0.245,0.099-0.371,0.152l0.088-0.435c-0.126,0.054-0.248,0.099-0.374,0.152l0.089-0.437
			c-0.126,0.054-0.247,0.099-0.372,0.152l0.088-0.436c-0.126,0.054-0.246,0.099-0.372,0.152l0.088-0.437
			c-0.126,0.054-0.247,0.099-0.373,0.152l0.088-0.436c-0.126,0.054-0.246,0.099-0.371,0.152l0.088-0.436
			c-0.126,0.054-0.247,0.099-0.372,0.152l0.088-0.436c-0.126,0.054-0.247,0.099-0.372,0.152l0.088-0.436
			c-0.126,0.054-0.246,0.099-0.372,0.152l0.088-0.436c-0.126,0.054-0.247,0.099-0.372,0.152l0.088-0.436
			c-0.126,0.054-0.247,0.099-0.372,0.152l0.088-0.437c-0.126,0.054-0.247,0.099-0.372,0.152l0.088-0.436
			c-0.126,0.054-0.247,0.099-0.372,0.152l0.088-0.436c-0.126,0.054-0.246,0.099-0.371,0.151l0.088-0.435
			c-0.126,0.054-0.247,0.099-0.372,0.152l0.088-0.436c-0.126,0.054-0.246,0.099-0.371,0.151l0.088-0.435
			c-0.126,0.054-0.248,0.099-0.374,0.152l0.089-0.437c-0.126,0.054-0.246,0.099-0.371,0.151l0.088-0.435
			c-0.126,0.054-0.247,0.099-0.372,0.152l0.088-0.436c-0.958,0.411-1.898,0.795-2.828,1.159l-1.846,9.102
			c-9.12,2.99-17.454,4.484-25.006,4.484c-8.967,0-16.221-2.511-21.799-7.478c0.449,0.506,0.892,1.02,1.384,1.491
			c0.032,0.03,0.066,0.055,0.098,0.084c0.065,0.064,0.119,0.137,0.185,0.2c0.034,0.032,0.072,0.059,0.105,0.091
			c0.063,0.061,0.115,0.131,0.179,0.192c0.032,0.03,0.067,0.055,0.098,0.085c0.066,0.063,0.12,0.136,0.186,0.199
			c0.034,0.033,0.072,0.059,0.105,0.091c0.062,0.062,0.115,0.132,0.179,0.192c0.032,0.03,0.066,0.055,0.098,0.085
			c0.065,0.063,0.119,0.136,0.185,0.199c0.035,0.034,0.074,0.062,0.109,0.095c0.062,0.06,0.113,0.129,0.176,0.188
			c0.031,0.03,0.066,0.055,0.098,0.084c0.065,0.063,0.119,0.137,0.185,0.2c0.034,0.032,0.071,0.059,0.105,0.091
			c0.063,0.062,0.115,0.132,0.179,0.192c0.031,0.03,0.066,0.055,0.098,0.085c0.065,0.063,0.12,0.136,0.186,0.199
			c0.032,0.031,0.069,0.057,0.102,0.088c0.063,0.062,0.117,0.134,0.182,0.196c0.033,0.031,0.07,0.057,0.102,0.088
			c0.064,0.062,0.117,0.134,0.182,0.196c0.033,0.031,0.069,0.056,0.103,0.087c0.063,0.062,0.117,0.134,0.181,0.195
			c0.032,0.03,0.066,0.055,0.098,0.084c0.065,0.064,0.119,0.137,0.185,0.2c0.034,0.032,0.072,0.059,0.106,0.091
			c0.062,0.061,0.115,0.131,0.179,0.192c0.034,0.033,0.071,0.059,0.105,0.091c0.063,0.061,0.115,0.131,0.179,0.192
			c0.032,0.03,0.066,0.055,0.098,0.085c0.065,0.063,0.12,0.136,0.186,0.2c0.033,0.031,0.069,0.056,0.103,0.087
			c0.063,0.062,0.117,0.134,0.181,0.195c0.032,0.03,0.066,0.055,0.098,0.085c0.066,0.063,0.12,0.136,0.186,0.199
			c0.034,0.033,0.072,0.059,0.105,0.091c0.062,0.061,0.115,0.132,0.179,0.192c0.032,0.031,0.069,0.057,0.101,0.087
			c0.064,0.062,0.117,0.134,0.182,0.196c0.033,0.031,0.069,0.056,0.102,0.087c0.064,0.062,0.117,0.134,0.182,0.196
			c0.033,0.031,0.07,0.057,0.102,0.088c0.064,0.062,0.118,0.135,0.183,0.196c0.034,0.033,0.071,0.059,0.105,0.091
			c0.063,0.061,0.115,0.132,0.178,0.192c0.032,0.03,0.067,0.055,0.099,0.085c0.065,0.063,0.12,0.136,0.186,0.2
			c0.032,0.031,0.069,0.057,0.101,0.087c0.064,0.062,0.118,0.134,0.182,0.196c0.033,0.031,0.069,0.057,0.103,0.088
			c0.063,0.062,0.117,0.134,0.182,0.196c0.032,0.031,0.069,0.057,0.102,0.088c0.064,0.062,0.117,0.134,0.182,0.195
			c0.033,0.031,0.069,0.057,0.102,0.087c0.064,0.063,0.117,0.134,0.182,0.196c0.032,0.03,0.066,0.055,0.098,0.085
			c0.066,0.063,0.12,0.136,0.186,0.2c0.034,0.032,0.072,0.059,0.106,0.091c0.062,0.061,0.115,0.131,0.178,0.192
			c0.033,0.031,0.07,0.057,0.103,0.088c0.063,0.062,0.117,0.134,0.182,0.196c0.034,0.033,0.072,0.059,0.106,0.091
			c0.062,0.061,0.114,0.131,0.178,0.192c0.032,0.03,0.066,0.055,0.098,0.084c0.065,0.064,0.119,0.137,0.185,0.2
			c0.034,0.033,0.071,0.059,0.105,0.091c0.062,0.061,0.115,0.131,0.179,0.192c0.032,0.03,0.066,0.055,0.098,0.085
			c0.065,0.063,0.12,0.136,0.186,0.2c0.033,0.031,0.069,0.056,0.102,0.087c0.064,0.062,0.118,0.134,0.182,0.195
			c0.032,0.03,0.066,0.055,0.098,0.085c0.066,0.063,0.12,0.136,0.186,0.199c0.034,0.033,0.072,0.059,0.105,0.091
			c0.062,0.061,0.115,0.132,0.179,0.192c0.032,0.03,0.066,0.055,0.098,0.085c0.065,0.063,0.119,0.136,0.185,0.199
			c0.034,0.033,0.072,0.059,0.106,0.091c0.063,0.061,0.115,0.131,0.179,0.193c0.033,0.031,0.069,0.056,0.102,0.087
			c0.063,0.062,0.117,0.134,0.181,0.195c0.034,0.033,0.071,0.059,0.105,0.091c0.063,0.061,0.115,0.132,0.178,0.192
			c0.032,0.03,0.067,0.055,0.099,0.085c0.065,0.063,0.12,0.136,0.186,0.2c0.032,0.031,0.069,0.057,0.101,0.087
			c0.064,0.062,0.117,0.134,0.182,0.196c0.033,0.031,0.07,0.057,0.103,0.088c0.064,0.063,0.117,0.135,0.182,0.197
			c0.033,0.031,0.069,0.056,0.102,0.087c0.064,0.062,0.118,0.134,0.182,0.195c0.03,0.029,0.064,0.053,0.094,0.082
			c0.066,0.064,0.122,0.139,0.189,0.203c0.035,0.033,0.074,0.061,0.11,0.094c0.061,0.061,0.113,0.129,0.175,0.189
			c0.032,0.031,0.069,0.057,0.101,0.087c0.064,0.062,0.117,0.134,0.182,0.196c0.033,0.031,0.07,0.057,0.102,0.088
			c0.063,0.062,0.117,0.134,0.182,0.196c0.032,0.031,0.069,0.057,0.102,0.088c0.063,0.062,0.117,0.134,0.182,0.195
			c0.033,0.031,0.069,0.057,0.102,0.088c0.063,0.062,0.117,0.134,0.182,0.196c0.032,0.03,0.067,0.055,0.098,0.084
			c0.065,0.064,0.119,0.137,0.185,0.2c0.034,0.032,0.072,0.059,0.105,0.091c0.063,0.061,0.115,0.131,0.179,0.192
			c0.033,0.031,0.069,0.056,0.102,0.088c0.063,0.062,0.117,0.133,0.181,0.195c0.033,0.031,0.07,0.058,0.102,0.088
			c0.064,0.062,0.118,0.135,0.183,0.196c0.032,0.031,0.07,0.057,0.102,0.088c0.063,0.062,0.117,0.134,0.182,0.196
			c0.033,0.031,0.069,0.056,0.102,0.087c0.064,0.062,0.118,0.134,0.182,0.195c0.032,0.031,0.069,0.057,0.102,0.088
			c0.064,0.062,0.117,0.134,0.182,0.196c0.034,0.032,0.071,0.059,0.105,0.091c0.063,0.061,0.115,0.131,0.179,0.191
			c0.03,0.029,0.064,0.053,0.094,0.082c0.066,0.065,0.122,0.139,0.188,0.203c0.034,0.033,0.072,0.059,0.105,0.091
			c0.062,0.061,0.115,0.131,0.179,0.192c0.034,0.032,0.072,0.059,0.105,0.091c0.063,0.061,0.116,0.131,0.18,0.192
			c0.031,0.03,0.066,0.055,0.098,0.084c0.065,0.064,0.119,0.137,0.185,0.2c0.033,0.031,0.07,0.057,0.102,0.088
			c0.063,0.062,0.117,0.134,0.182,0.196c0.032,0.032,0.069,0.056,0.102,0.088c0.064,0.063,0.117,0.134,0.182,0.196
			c0.032,0.031,0.069,0.057,0.101,0.087c0.064,0.062,0.117,0.134,0.182,0.196c0.032,0.031,0.069,0.057,0.102,0.088
			c0.063,0.063,0.117,0.134,0.182,0.196c0.032,0.031,0.069,0.057,0.102,0.087c0.063,0.062,0.117,0.134,0.181,0.196
			c0.032,0.03,0.066,0.055,0.098,0.085c0.065,0.063,0.12,0.136,0.186,0.2c0.034,0.032,0.071,0.059,0.105,0.091
			c0.063,0.061,0.115,0.13,0.179,0.192c0.033,0.031,0.069,0.056,0.102,0.088c0.064,0.062,0.117,0.134,0.182,0.196
			c0.034,0.032,0.071,0.059,0.105,0.091c0.063,0.061,0.115,0.131,0.179,0.192c0.032,0.03,0.067,0.055,0.098,0.085
			c0.066,0.063,0.12,0.136,0.186,0.2c0.033,0.031,0.069,0.056,0.102,0.087c0.063,0.063,0.117,0.134,0.181,0.196
			c0.032,0.031,0.069,0.057,0.102,0.088c0.063,0.062,0.117,0.134,0.182,0.195c5.671,5.43,13.196,8.144,22.571,8.144
			c7.551,0,15.886-1.495,25.006-4.484l1.169-5.768h0.27l-0.057,0.285h0.339l-0.056,0.283h0.341l-0.057,0.284h0.34l-0.057,0.284h0.34
			l-0.057,0.284h0.341l-0.056,0.284h0.339l-0.056,0.283h0.34l-0.057,0.285h0.341l-0.057,0.283h0.34l-0.057,0.283h0.34l-0.057,0.285
			h0.34l-0.056,0.283h0.34l-0.056,0.284h0.34l-0.057,0.283h0.339l-0.056,0.284h0.34l-0.057,0.284h0.34l-0.057,0.284h0.34
			l-0.057,0.284h0.34l-0.056,0.284h0.34l-0.056,0.283h0.339l-0.056,0.284h0.341l-0.057,0.284h0.34l-0.056,0.283h0.34l-0.057,0.284
			h0.339l-0.056,0.284h0.34l-0.057,0.284h0.34l-0.057,0.283h0.34l-0.057,0.285h0.34l-0.057,0.283h16.186l4.091-20.458l0.012,0.034
			h0.181l0.102,0.284h0.182l0.102,0.284h0.182l0.102,0.283h0.182l0.102,0.284h0.182l0.102,0.283h0.183l0.102,0.285h0.183
			l0.101,0.283h0.181l0.102,0.284h0.183l0.101,0.283h0.182l0.102,0.283h0.183l0.102,0.284h0.182l0.101,0.283h0.182l0.102,0.284
			h0.182l0.102,0.284h0.181l0.102,0.284h0.183l0.102,0.283h0.181l0.102,0.285h0.183l0.102,0.283h0.182l0.102,0.284h0.181
			l0.102,0.284h0.183l0.101,0.283h0.182l0.102,0.284h0.182l0.101,0.283h0.182l0.102,0.284h0.182l0.102,0.284h0.181l0.102,0.284
			h0.184l0.101,0.283h0.181l0.102,0.285h0.183l0.102,0.283h0.181l0.102,0.285h0.183l0.101,0.283h0.182l0.102,0.284h0.182
			l0.101,0.283h0.182l0.102,0.284h0.182l0.102,0.284h0.182l0.102,0.284h0.183l0.101,0.283h0.181l0.102,0.285h0.183l0.101,0.283
			h0.183l0.102,0.283h0.181l0.102,0.285h0.184l0.101,0.283h0.182l0.102,0.283h0.181l0.102,0.285h0.183l0.101,0.283h0.182
			l0.102,0.284h0.182l0.102,0.284h0.181l0.102,0.284h0.182l0.102,0.284h0.182l0.102,0.283h0.182l0.102,0.285h0.183l0.102,0.283
			h0.182l0.102,0.283h0.181l0.102,0.285h0.183l0.101,0.283h0.181l0.102,0.284h0.182l0.102,0.283h0.183l0.102,0.284h0.181
			l0.102,0.284h0.181l0.102,0.284h0.183l0.102,0.284h0.181l0.102,0.284h0.183l0.101,0.283h0.181l0.102,0.284h0.183l0.102,0.284
			h0.182l0.102,0.283h0.182l0.102,0.284h0.182l0.102,0.284h0.182l0.102,0.284h0.182l0.101,0.283h0.183l0.102,0.285h0.182
			l0.102,0.283h18.678l-13.436-37.058C134.28,77.474,134.325,77.449,134.373,77.425z"/>
	</g>
	<g>
		<path fill="#2B2C2D" d="M178.264,171.36l-13.467-8.211c-2.761-1.69-4.996-3.29-6.724-4.803c0.365,0.426,0.763,0.855,1.219,1.296
			c0.093,0.094,0.182,0.188,0.281,0.282c0.094,0.094,0.186,0.188,0.285,0.284c0.096,0.096,0.188,0.192,0.288,0.289
			c0.094,0.093,0.184,0.186,0.282,0.28c0.094,0.095,0.187,0.19,0.286,0.286c0.091,0.092,0.179,0.183,0.274,0.273
			c0.097,0.098,0.19,0.195,0.292,0.293c0.093,0.094,0.184,0.188,0.282,0.281c0.094,0.095,0.184,0.188,0.283,0.283
			c0.096,0.096,0.188,0.19,0.288,0.286c0.093,0.095,0.183,0.188,0.28,0.281c0.094,0.095,0.184,0.188,0.282,0.282
			c0.094,0.094,0.186,0.189,0.286,0.286c0.094,0.094,0.187,0.189,0.286,0.286c0.093,0.093,0.183,0.184,0.278,0.278
			c0.094,0.094,0.186,0.19,0.286,0.286c0.094,0.094,0.184,0.188,0.283,0.283c0.096,0.096,0.188,0.191,0.289,0.289
			c0.091,0.091,0.178,0.181,0.272,0.272c0.097,0.099,0.193,0.196,0.295,0.295c0.093,0.095,0.184,0.186,0.28,0.28
			c0.093,0.093,0.181,0.184,0.277,0.276c0.098,0.098,0.19,0.193,0.292,0.293c0.094,0.094,0.184,0.187,0.283,0.281
			c0.091,0.093,0.179,0.185,0.275,0.277c0.094,0.094,0.186,0.188,0.283,0.282c0.098,0.1,0.193,0.197,0.295,0.296
			c0.093,0.093,0.183,0.186,0.279,0.278c0.094,0.095,0.184,0.188,0.283,0.283c0.095,0.096,0.188,0.19,0.286,0.286
			c0.093,0.093,0.183,0.186,0.279,0.278c0.096,0.096,0.188,0.191,0.289,0.289c0.093,0.093,0.183,0.186,0.28,0.28
			c0.096,0.095,0.188,0.19,0.286,0.286c0.093,0.093,0.181,0.184,0.277,0.277c0.097,0.097,0.19,0.193,0.292,0.292
			c0.093,0.093,0.184,0.188,0.283,0.281c0.093,0.095,0.183,0.188,0.28,0.281c0.095,0.093,0.184,0.188,0.282,0.282
			c0.098,0.098,0.19,0.193,0.292,0.29c0.089,0.092,0.178,0.183,0.272,0.274c0.098,0.098,0.19,0.193,0.292,0.292
			c0.093,0.093,0.183,0.186,0.28,0.28c0.093,0.093,0.184,0.188,0.282,0.281c0.094,0.095,0.186,0.188,0.285,0.285
			c0.096,0.096,0.19,0.193,0.291,0.29c0.09,0.092,0.178,0.182,0.272,0.272c0.097,0.1,0.193,0.196,0.295,0.296
			c0.093,0.093,0.181,0.184,0.278,0.276c0.093,0.095,0.183,0.188,0.28,0.282c0.096,0.097,0.188,0.192,0.289,0.289
			c0.094,0.094,0.184,0.187,0.282,0.281c0.094,0.095,0.184,0.188,0.281,0.281c0.096,0.096,0.187,0.19,0.286,0.286
			c0.094,0.095,0.186,0.188,0.283,0.283c0.094,0.095,0.186,0.188,0.285,0.285c0.093,0.093,0.184,0.187,0.281,0.281
			c0.096,0.096,0.189,0.19,0.288,0.287c0.093,0.094,0.181,0.185,0.277,0.277c0.097,0.098,0.191,0.193,0.292,0.292
			c0.091,0.09,0.178,0.18,0.271,0.271c0.099,0.097,0.192,0.196,0.295,0.294c0.091,0.093,0.181,0.186,0.278,0.279
			c0.096,0.096,0.189,0.192,0.289,0.288c0.093,0.094,0.183,0.187,0.28,0.281c0.091,0.092,0.179,0.183,0.275,0.275
			c0.099,0.099,0.195,0.199,0.3,0.3c0.091,0.092,0.181,0.185,0.277,0.277c0.093,0.093,0.183,0.186,0.28,0.28
			c0.096,0.094,0.187,0.189,0.286,0.286c0.093,0.093,0.183,0.186,0.28,0.279c0.096,0.096,0.19,0.193,0.291,0.291
			c0.093,0.093,0.182,0.186,0.281,0.28c0.093,0.093,0.179,0.184,0.278,0.278c0.096,0.098,0.192,0.194,0.294,0.294
			c1.126,1.129,2.583,2.315,4.328,3.552c0.585-1.29,0.916-2.596,0.916-3.919c0-1.204-0.328-2.464-0.984-3.777
			C184.136,175.466,181.945,173.659,178.264,171.36z"/>
		<path fill="#2B2C2D" d="M208.981,124.188l-2.253,11.21c-3.062-1.351-5.64-2.301-7.722-2.847c-2.078-0.548-4.34-0.994-6.787-1.341
			c-2.44-0.348-4.724-0.521-6.84-0.521c-5.328,0-9.509,0.969-12.537,2.902c-3.032,1.935-4.543,4.323-4.543,7.171
			c0,1.168,0.262,2.289,0.792,3.365c0.531,1.075,2.198,2.455,5.01,4.134l14.943,8.976c1.603,0.955,3.068,1.919,4.414,2.89
			c0.746-1.027,1.764-1.971,3.097-2.821c3.029-1.934,7.209-2.901,12.536-2.901c2.119,0,4.399,0.173,6.843,0.52
			c2.444,0.348,4.705,0.793,6.787,1.341c2.079,0.548,4.656,1.497,7.723,2.847l2.406-11.988h0.025l-0.057,0.284h0.341l-0.059,0.283
			h0.343l-0.059,0.283h0.341l-0.056,0.285h0.34l-0.059,0.282h0.34l-0.056,0.285h0.341l-0.056,0.283h0.34l-0.056,0.283h0.341
			l-0.059,0.284h0.34l-0.056,0.283h0.34l-0.056,0.284h0.341l-0.059,0.283h0.34l-0.056,0.283h0.341l-0.056,0.285h0.34l-0.059,0.282
			h0.34l-0.056,0.283h0.341l-0.056,0.285h0.34l-0.059,0.284h0.344l-0.059,0.283h0.34l-0.056,0.283h0.288l3.987-20.026h-21.711
			l-0.257,1.267c-0.007-0.002-0.016-0.003-0.025-0.007l0.044-0.208c-0.108-0.028-0.22-0.047-0.325-0.073l0.04-0.21
			c-0.104-0.028-0.216-0.047-0.324-0.073l0.043-0.212c-0.108-0.027-0.22-0.046-0.328-0.074l0.044-0.209
			c-0.108-0.027-0.22-0.046-0.325-0.072l0.024-0.128h-1.203l0.198-0.972c-0.053-0.011-0.105-0.021-0.155-0.034l0.041-0.212
			c-0.105-0.028-0.217-0.047-0.325-0.072l0.043-0.211c-0.108-0.027-0.22-0.046-0.328-0.072l0.044-0.211
			c-0.108-0.027-0.22-0.046-0.325-0.072l0.04-0.212c-0.104-0.028-0.216-0.047-0.324-0.073l0.043-0.21
			c-0.108-0.028-0.22-0.047-0.328-0.073l0.044-0.21c-0.108-0.027-0.22-0.046-0.325-0.072l0.04-0.212
			c-0.104-0.028-0.217-0.047-0.324-0.073l0.043-0.212c-0.108-0.027-0.22-0.046-0.328-0.074l0.043-0.209
			c-0.107-0.027-0.219-0.046-0.324-0.072l0.04-0.211c-0.105-0.027-0.22-0.046-0.325-0.074l0.041-0.21
			c-0.105-0.028-0.217-0.046-0.325-0.072l0.043-0.211c-0.108-0.027-0.22-0.046-0.324-0.072l0.04-0.211
			c-0.105-0.027-0.22-0.046-0.325-0.074l0.04-0.21c-0.104-0.028-0.216-0.047-0.324-0.073l0.043-0.21
			c-0.108-0.028-0.22-0.047-0.328-0.074l0.044-0.21c-0.108-0.028-0.22-0.047-0.325-0.073l0.04-0.21
			c-0.104-0.028-0.22-0.047-0.324-0.074l0.04-0.211c-0.105-0.027-0.217-0.046-0.325-0.072l0.044-0.211
			c-0.108-0.027-0.22-0.046-0.325-0.072l0.04-0.21c-0.105-0.028-0.217-0.047-0.325-0.073l0.044-0.212
			c-0.108-0.027-0.22-0.046-0.328-0.072l0.043-0.211c-0.108-0.027-0.22-0.046-0.327-0.072l0.043-0.211
			c-0.108-0.027-0.22-0.046-0.325-0.072l0.04-0.212c-0.104-0.028-0.216-0.047-0.324-0.073l0.043-0.21
			C210.648,124.533,209.808,124.375,208.981,124.188z"/>
		<path fill="#2B2C2D" d="M143.355,124.088l-1.711,8.683h-34.482l-4.576,22.88h29.032l-0.167,0.834h24.718
			c-0.673-0.749-1.216-1.476-1.607-2.175c-1.462-2.608-2.188-5.446-2.188-8.512c0-4.185,1.167-8.11,3.488-11.782h-0.337l0.056-0.283
			h-0.339l0.056-0.283h-0.34l0.056-0.285h-0.34l0.056-0.282h-0.337l0.056-0.283h-0.34l0.056-0.285h-0.34l0.056-0.283h-0.339
			l0.056-0.284h-0.339l0.056-0.283h-0.34l0.056-0.284h-0.338l0.056-0.283h-0.339l0.056-0.283h-0.34l0.056-0.284h-0.339l0.056-0.283
			h-0.339l0.056-0.283h-0.34l0.056-0.285h-0.339l0.056-0.283h-0.34l0.056-0.284h-0.339l0.056-0.283h-0.338l0.056-0.283h-0.34
			l0.056-0.284h-0.339l0.056-0.283h-0.34l0.056-0.284h-0.339l0.056-0.283h-0.338l0.056-0.283h-0.34l0.056-0.285h-0.339l0.056-0.282
			h-0.339l0.056-0.283h-0.34l0.056-0.285h-0.338l0.056-0.283h-0.34l0.056-0.283h-0.339l0.056-0.282h-0.34l0.057-0.286h-0.34
			l0.056-0.283h-0.338l0.056-0.283H143.355z"/>
		<path fill="#2B2C2D" d="M155.332,179.363h-0.342l0.057-0.283h-0.34l0.057-0.284h-0.34l0.057-0.283h-0.342l0.057-0.283h-0.34
			l0.057-0.284h-0.34l0.057-0.283h-0.342l0.057-0.285h-0.34l0.057-0.282h-0.342l0.058-0.285h-0.34l0.057-0.283h-0.34l0.057-0.283
			h-0.342l0.057-0.282h-0.34l0.057-0.285h-0.34l0.058-0.283h-0.342l0.057-0.284h-0.34l0.057-0.283h-0.342l0.057-0.285h-0.34
			l0.057-0.282h-0.342l0.058-0.285h-0.339l0.056-0.281h-0.34l0.057-0.285h-0.342l0.057-0.282h-0.34l0.058-0.285h-0.34l0.057-0.283
			h-0.342l0.057-0.284h-0.34l0.057-0.283h-0.34l0.057-0.283h-0.342l0.058-0.284h-0.34l0.057-0.283h-0.34l0.057-0.283h-0.342
			l0.057-0.285h-0.34l0.057-0.282h-0.342l0.058-0.285h-0.34l0.057-0.283h-0.342l0.057-0.283h-0.34l0.057-0.282h-0.34l0.058-0.285
			h-0.342l0.058-0.284h-0.34l0.057-0.283h-0.34l0.057-0.283h-0.342l0.057-0.284h-0.34l0.058-0.283h-0.34l0.057-0.283h-0.342
			l0.057-0.285h-0.34l0.057-0.283h-0.34l0.057-0.282h-0.342l0.058-0.285h-0.342l0.057-0.283h-0.34l0.057-0.284h-0.34l0.057-0.283
			h-0.34l0.058-0.284h-0.342l0.058-0.283h-0.34l0.057-0.283h-0.342l0.057-0.285h-0.34l0.057-0.282h-0.34l0.058-0.283h-0.342
			l0.058-0.285h-0.34l0.057-0.283h-0.342l0.057-0.284h-0.34l0.057-0.283h-0.34l0.058-0.283h-0.342l0.057-0.284h-0.34l0.057-0.283
			h-0.342l0.057-0.283h-0.34l0.057-0.284h-0.34l0.058-0.283h-0.342l0.057-0.285h-0.34l0.057-0.283h-0.34l0.057-0.284h-0.342
			l0.057-0.283h-0.34l0.058-0.283h-0.34l0.057-0.283h-0.342l0.057-0.284h-0.34l0.057-0.283H134l0.057-0.284h-0.34l0.057-0.283
			h-2.588l-1.596,7.971h-29.029l-5.266,26.328h28.456l0.523-2.614h19.329l0.154-0.779c0.626,0.277,1.249,0.524,1.872,0.779h7.674
			L155.332,179.363z"/>
		<polygon fill="#2B2C2D" points="308.594,145.646 308.649,145.362 308.309,145.362 308.364,145.078 308.027,145.078 
			308.083,144.795 307.743,144.795 307.799,144.511 307.458,144.511 307.514,144.228 307.177,144.228 307.232,143.944 
			306.892,143.944 306.947,143.66 306.607,143.66 306.663,143.377 306.326,143.377 306.382,143.094 306.041,143.094 
			306.097,142.809 305.757,142.809 305.812,142.525 305.476,142.525 305.531,142.241 305.19,142.241 305.246,141.958 
			304.906,141.958 304.962,141.675 304.621,141.675 304.677,141.391 304.34,141.391 304.396,141.107 304.055,141.107 
			304.111,140.824 303.771,140.824 303.826,140.54 303.489,140.54 303.545,140.255 303.204,140.255 303.26,139.972 302.92,139.972 
			302.976,139.689 302.639,139.689 302.694,139.406 302.354,139.406 302.409,139.123 302.069,139.123 302.125,138.838 
			301.787,138.838 301.843,138.554 301.503,138.554 301.559,138.271 301.219,138.271 301.274,137.987 300.937,137.987 
			300.992,137.703 300.652,137.703 300.708,137.42 300.367,137.42 300.423,137.137 300.083,137.137 300.139,136.853 
			299.802,136.853 299.857,136.567 299.517,136.567 299.572,136.284 299.232,136.284 299.288,136.001 298.95,136.001 
			299.006,135.719 298.666,135.719 298.722,135.434 298.382,135.434 298.438,135.15 298.1,135.15 298.155,134.866 297.815,134.866 
			297.871,134.583 297.53,134.583 297.586,134.3 297.249,134.3 297.305,134.016 296.965,134.016 297.021,133.732 296.68,133.732 
			296.735,133.449 296.398,133.449 296.454,133.164 296.113,133.164 296.17,132.882 295.829,132.882 295.885,132.599 
			295.545,132.599 295.601,132.313 295.263,132.313 295.318,132.03 294.979,132.03 295.034,131.746 294.693,131.746 
			294.749,131.463 294.412,131.463 294.468,131.179 294.128,131.179 294.184,130.896 293.843,130.896 293.898,130.612 
			293.562,130.612 293.617,130.328 293.277,130.328 293.333,130.045 292.992,130.045 293.048,129.762 292.711,129.762 
			292.767,129.477 292.426,129.477 292.481,129.193 292.142,129.193 292.197,128.909 291.856,128.909 291.912,128.626 
			291.575,128.626 291.631,128.343 291.291,128.343 291.347,128.059 291.006,128.059 291.062,127.775 290.725,127.775 
			290.78,127.491 290.44,127.491 290.496,127.208 290.155,127.208 290.211,126.925 289.871,126.925 289.927,126.64 289.589,126.64 
			289.645,126.357 289.305,126.357 289.36,126.074 289.023,126.074 289.079,125.789 288.738,125.789 288.794,125.506 
			288.454,125.506 288.51,125.223 288.169,125.223 288.225,124.94 287.885,124.94 287.94,124.654 287.604,124.654 287.659,124.371 
			287.318,124.371 287.374,124.088 284.794,124.088 283.08,132.771 258.73,132.771 244.694,202.943 231.098,202.943 230.668,205.1 
			231.005,205.1 230.949,205.383 231.293,205.383 231.233,205.667 231.574,205.667 231.519,205.95 231.858,205.95 231.8,206.235 
			232.141,206.235 232.085,206.518 232.425,206.518 232.369,206.801 232.709,206.801 232.653,207.086 232.991,207.086 
			232.936,207.369 233.275,207.369 233.22,207.651 233.561,207.651 233.505,207.937 233.842,207.937 233.786,208.22 234.126,208.22 
			234.07,208.504 234.411,208.504 234.355,208.787 234.692,208.787 234.637,209.07 234.98,209.07 234.922,209.354 235.262,209.354 
			235.206,209.638 235.543,209.638 235.487,209.921 235.831,209.921 235.772,210.206 236.112,210.206 236.057,210.49 
			236.397,210.49 236.342,210.773 236.679,210.773 236.623,211.057 236.963,211.057 236.907,211.34 237.248,211.34 237.192,211.624 
			237.529,211.624 237.474,211.907 237.813,211.907 237.758,212.191 238.099,212.191 238.043,212.475 238.383,212.475 
			238.327,212.758 238.668,212.758 238.609,213.043 238.949,213.043 238.894,213.325 239.23,213.325 239.175,213.608 
			239.519,213.608 239.46,213.894 239.8,213.894 239.744,214.177 240.085,214.177 240.029,214.461 240.366,214.461 240.311,214.744 
			240.65,214.744 240.595,215.027 240.936,215.027 240.88,215.311 241.22,215.311 241.161,215.595 241.502,215.595 241.446,215.879 
			241.786,215.879 241.73,216.162 242.067,216.162 242.012,216.445 242.355,216.445 242.297,216.73 242.637,216.73 242.581,217.014 
			242.922,217.014 242.866,217.296 243.203,217.296 243.147,217.581 243.487,217.581 243.432,217.864 243.772,217.864 
			243.717,218.148 244.054,218.148 243.998,218.432 244.339,218.432 244.283,218.716 244.623,218.716 244.567,218.998 
			244.907,218.998 244.849,219.282 245.189,219.282 245.134,219.567 245.474,219.567 245.418,219.85 245.755,219.85 
			245.699,220.133 246.043,220.133 245.984,220.418 246.324,220.418 246.269,220.701 246.609,220.701 246.554,220.984 
			246.891,220.984 246.835,221.269 247.176,221.269 247.119,221.552 247.457,221.552 247.401,221.835 247.744,221.835 
			247.686,222.119 248.026,222.119 247.971,222.402 248.311,222.402 248.255,222.686 248.596,222.686 248.536,222.97 
			248.877,222.97 248.821,223.253 249.161,223.253 249.105,223.538 249.443,223.538 249.388,223.82 249.73,223.82 249.672,224.105 
			250.012,224.105 249.956,224.389 250.297,224.389 250.241,224.672 250.578,224.672 250.522,224.956 250.863,224.956 
			250.808,225.239 251.145,225.239 251.089,225.522 251.433,225.522 251.373,225.807 251.714,225.807 251.658,226.09 
			251.998,226.09 251.942,226.375 252.28,226.375 252.225,226.657 268.407,226.657 282.446,156.484 306.793,156.484 
			308.934,145.646 		"/>
		<path fill="#2B2C2D" d="M222.188,188.097c-0.107-0.116-0.226-0.23-0.337-0.345c-0.093-0.095-0.191-0.188-0.284-0.284
			c-0.096-0.1-0.201-0.198-0.301-0.298c-0.08-0.086-0.173-0.17-0.257-0.257c-0.093-0.097-0.194-0.194-0.29-0.292
			c-0.093-0.099-0.198-0.196-0.294-0.294c-0.09-0.093-0.186-0.186-0.278-0.278c-0.087-0.09-0.183-0.18-0.27-0.27
			c-0.099-0.104-0.207-0.207-0.31-0.312c-0.086-0.089-0.183-0.179-0.272-0.269c-0.089-0.095-0.188-0.188-0.281-0.283
			s-0.191-0.188-0.284-0.283c-0.093-0.098-0.195-0.193-0.288-0.289c-0.083-0.087-0.176-0.173-0.263-0.26
			c-0.1-0.105-0.207-0.209-0.31-0.312c-0.087-0.092-0.186-0.183-0.275-0.275c-0.093-0.096-0.194-0.191-0.287-0.288
			c-0.087-0.088-0.18-0.176-0.267-0.265c-0.093-0.099-0.194-0.196-0.294-0.295c-0.09-0.096-0.191-0.19-0.284-0.286
			c-0.097-0.099-0.201-0.198-0.297-0.297c-0.09-0.093-0.189-0.185-0.279-0.277c-0.089-0.093-0.188-0.184-0.278-0.276
			c-0.086-0.09-0.179-0.18-0.269-0.27c-0.1-0.104-0.208-0.206-0.307-0.31c-0.09-0.091-0.186-0.181-0.275-0.273
			s-0.186-0.184-0.278-0.277c-0.096-0.1-0.198-0.199-0.297-0.298c-0.087-0.092-0.186-0.183-0.275-0.274
			c-0.087-0.091-0.183-0.182-0.272-0.273c-0.096-0.099-0.201-0.199-0.3-0.299c-0.084-0.09-0.18-0.178-0.266-0.266
			c-0.097-0.101-0.201-0.201-0.301-0.302c-0.09-0.096-0.191-0.191-0.287-0.288c-0.093-0.096-0.195-0.193-0.291-0.29
			c-0.081-0.085-0.174-0.169-0.257-0.254c-0.09-0.098-0.192-0.192-0.285-0.288c-0.099-0.104-0.207-0.205-0.309-0.31
			c-0.084-0.089-0.183-0.178-0.27-0.268c-0.087-0.091-0.183-0.182-0.272-0.273c-0.093-0.095-0.191-0.188-0.284-0.284
			c-0.1-0.103-0.204-0.204-0.307-0.307c-0.083-0.088-0.176-0.175-0.263-0.263c-0.096-0.101-0.201-0.2-0.3-0.301
			c-0.084-0.088-0.177-0.175-0.264-0.261c-0.096-0.101-0.201-0.201-0.3-0.302c-0.087-0.093-0.186-0.186-0.278-0.278
			c-0.096-0.1-0.201-0.198-0.297-0.299c-0.081-0.085-0.174-0.169-0.257-0.254c-0.096-0.099-0.198-0.199-0.297-0.298
			c-0.09-0.095-0.188-0.188-0.281-0.282c-0.097-0.101-0.201-0.201-0.301-0.3c-0.083-0.09-0.18-0.177-0.266-0.265
			c-0.09-0.094-0.188-0.187-0.278-0.279c-0.093-0.098-0.195-0.195-0.291-0.293c-0.093-0.096-0.195-0.191-0.291-0.289
			c-0.087-0.093-0.186-0.186-0.278-0.278c-0.09-0.096-0.191-0.188-0.284-0.285c-0.09-0.094-0.189-0.187-0.282-0.281
			c-0.09-0.096-0.191-0.188-0.284-0.284c-0.09-0.095-0.192-0.189-0.285-0.285c-0.089-0.094-0.188-0.188-0.281-0.283
			c-0.096-0.099-0.201-0.197-0.3-0.298c-0.081-0.084-0.17-0.167-0.251-0.251c-0.099-0.102-0.204-0.202-0.303-0.305
			c-0.09-0.095-0.192-0.188-0.282-0.281c-0.089-0.095-0.191-0.188-0.284-0.282c-0.09-0.096-0.191-0.189-0.284-0.286
			c-0.09-0.094-0.189-0.187-0.282-0.281c-0.09-0.094-0.191-0.188-0.284-0.284c-0.093-0.098-0.198-0.195-0.294-0.294
			c-0.084-0.089-0.18-0.177-0.267-0.265c-0.096-0.101-0.2-0.201-0.3-0.304c-0.083-0.088-0.18-0.175-0.266-0.263
			c-0.368-0.388-0.762-0.774-1.17-1.16c-0.201-0.193-0.427-0.385-0.637-0.578c0.104,0.117,0.22,0.235,0.321,0.353
			c2.479,2.919,3.722,6.514,3.722,10.783c0,4.927-1.547,9.67-4.628,14.23c-3.088,4.564-7.363,8.085-12.842,10.564
			c-5.473,2.479-12.593,3.722-21.352,3.722c-6.506,0-13.525-0.763-21.003-2.212l-0.059,0.299h-0.249l0.056-0.283h-0.34l0.025-0.122
			c-0.645-0.128-1.27-0.226-1.921-0.363l0.241-1.218h-0.046l0.056-0.283h-0.34l0.056-0.284h-0.339l0.056-0.283h-0.339l0.056-0.283
			h-0.34l0.056-0.284h-0.339l0.056-0.283h-0.34l0.056-0.283h-0.339l0.056-0.284H139l0.056-0.283h-0.34l0.056-0.285h-0.339
			l0.056-0.283h-0.34l0.056-0.284h-0.337l0.056-0.281h-0.34l0.056-0.285h-0.34l0.056-0.284h-0.339l0.056-0.283h-0.339l0.056-0.283
			h-0.34l0.056-0.284h-0.339l0.056-0.283h-0.339l0.056-0.283h-0.34l0.056-0.285h-0.339l0.056-0.284h-0.34l0.056-0.283h-0.339
			l0.056-0.283h-2.58l-1.711,8.683H76.943l13.614-68.077h-0.143l0.057-0.283h-0.34l0.057-0.283h-0.341l0.057-0.284h-0.339
			l0.056-0.283h-0.34l0.057-0.283h-0.34l0.057-0.285h-0.34l0.057-0.282h-0.34l0.057-0.283h-0.34l0.056-0.285h-0.339l0.056-0.283
			h-0.341l0.057-0.284h-0.34l0.057-0.283h-0.34l0.057-0.284h-0.34l0.056-0.283h-0.339l0.057-0.283h-0.34l0.056-0.284h-0.34
			l0.057-0.283h-0.34l0.057-0.283h-0.34l0.057-0.285h-0.34l0.057-0.283h-0.34l0.056-0.284h-0.34l0.057-0.283h-0.339l0.056-0.283
			H83.89l0.056-0.284h-0.339l0.057-0.283h-0.34l0.056-0.284H83.04l0.057-0.283h-0.34l0.056-0.283h-0.34l0.057-0.285h-0.34
			l0.057-0.282h-0.34l0.057-0.283H81.62l0.057-0.285h-0.339l0.056-0.283h-0.34l0.057-0.283h-0.339l0.056-0.282h-0.342l0.057-0.286
			h-0.34l0.057-0.283h-0.339l0.056-0.283H77.39l-15.718,78.855H48.893l0.779,2.156h0.181l0.102,0.283h0.181l0.103,0.284h0.182
			l0.102,0.283h0.181l0.103,0.285h0.182l0.102,0.282h0.181l0.102,0.283h0.182l0.103,0.285h0.181l0.102,0.283h0.182l0.102,0.282
			h0.181l0.103,0.285h0.182l0.102,0.283h0.18l0.103,0.284h0.182l0.102,0.283h0.181l0.102,0.283h0.182l0.103,0.284h0.181l0.102,0.283
			h0.181l0.102,0.283h0.182l0.103,0.285h0.18l0.103,0.284h0.183l0.102,0.283h0.181l0.102,0.283h0.182l0.102,0.283h0.181l0.103,0.284
			h0.181l0.102,0.283h0.181l0.103,0.284h0.182l0.102,0.283h0.181l0.102,0.283h0.181l0.103,0.285h0.182l0.102,0.282h0.181
			l0.102,0.283h0.181l0.103,0.285h0.182l0.102,0.283h0.182l0.103,0.284h0.181l0.102,0.283h0.182l0.102,0.283h0.182l0.103,0.283h0.18
			l0.103,0.284h0.181l0.103,0.284h0.182l0.102,0.283h0.181l0.103,0.283h0.181l0.103,0.285h0.182l0.102,0.283h0.181l0.102,0.282
			h0.182l0.103,0.285h0.181l0.103,0.283h0.18l0.103,0.284h0.183l0.102,0.283h0.181l0.103,0.284h0.182l0.102,0.282h0.18l0.103,0.284
			h0.181l0.103,0.285h0.182l0.102,0.282h0.181l0.102,0.283h0.181l0.103,0.285h0.182l0.102,0.283h0.181l0.102,0.283h0.182
			l0.103,0.284h0.181l0.102,0.283h0.182l0.102,0.283h0.181l0.103,0.284h0.182l0.102,0.283h0.181l0.102,0.283h0.181l0.103,0.284
			h0.182l0.102,0.283h0.18l0.103,0.285h0.182l0.102,0.282h0.181l0.103,0.285h0.182l0.102,0.283h0.181l0.102,0.283h0.182l0.103,0.284
			h0.182l0.102,0.283h0.181l0.102,0.283h0.181l0.103,0.284h0.182l0.102,0.283h0.18l0.103,0.285h0.182l0.102,0.282h14.156
			l2.544-12.764h0.303l-0.056,0.283h0.34l-0.057,0.284h0.34l-0.056,0.283h0.34l-0.056,0.283h0.34l-0.057,0.283h0.34l-0.057,0.284
			h0.341l-0.057,0.284h0.34l-0.056,0.283h0.34l-0.056,0.283h0.34l-0.057,0.285h0.34l-0.056,0.283h0.34l-0.057,0.282h0.34
			l-0.057,0.285h0.341l-0.056,0.283h0.34l-0.057,0.284h0.339l-0.057,0.283h0.342l-0.057,0.284h0.339l-0.056,0.282h0.34l-0.057,0.284
			h0.342l-0.058,0.285h0.34l-0.057,0.282h0.34l-0.057,0.283h0.341l-0.057,0.285h0.34l-0.057,0.283h0.34l-0.057,0.283h0.341
			l-0.057,0.284h0.339l-0.057,0.283h0.34l-0.056,0.283h0.341l-0.057,0.284h0.34l-0.057,0.283h0.34l-0.057,0.283h0.341l-0.058,0.284
			h0.34l-0.056,0.283h0.34l-0.058,0.285h0.341l-0.057,0.282h0.34l-0.057,0.285h0.339l-0.056,0.283h0.341l-0.056,0.283h0.34
			l-0.058,0.284h0.34l-0.056,0.283h0.34l-0.057,0.283h0.341l-0.058,0.284h0.34l-0.057,0.283h0.342l-0.057,0.285h0.339l-0.056,0.282
			h53.567l1.857-9.434c0.082,0.017,0.161,0.027,0.241,0.045l-0.043,0.223c0.111,0.023,0.216,0.039,0.326,0.062l-0.043,0.222
			c0.111,0.023,0.217,0.038,0.327,0.062l-0.043,0.222c0.111,0.022,0.217,0.038,0.328,0.062l-0.043,0.223
			c0.111,0.023,0.216,0.039,0.326,0.062l-0.043,0.222c0.111,0.023,0.216,0.039,0.326,0.062l-0.043,0.222
			c0.112,0.023,0.217,0.038,0.328,0.062l-0.043,0.223c0.111,0.023,0.217,0.039,0.327,0.062l-0.043,0.221
			c0.111,0.023,0.217,0.039,0.326,0.062l-0.043,0.224c0.111,0.022,0.216,0.038,0.328,0.062l-0.043,0.221
			c0.111,0.023,0.216,0.039,0.326,0.062l-0.043,0.221c0.111,0.023,0.217,0.039,0.327,0.062l-0.043,0.221
			c0.111,0.023,0.217,0.039,0.328,0.062l-0.043,0.223c0.111,0.022,0.216,0.038,0.328,0.062l-0.045,0.223
			c0.111,0.023,0.216,0.039,0.328,0.062l-0.043,0.222c0.111,0.023,0.216,0.039,0.326,0.062l-0.043,0.222
			c0.111,0.023,0.217,0.038,0.328,0.062l-0.045,0.223c0.111,0.023,0.217,0.039,0.328,0.062l-0.043,0.221
			c0.111,0.023,0.216,0.039,0.326,0.062l-0.043,0.224c0.111,0.022,0.216,0.038,0.328,0.062l-0.043,0.221
			c0.111,0.023,0.216,0.039,0.326,0.062l-0.043,0.221c0.111,0.023,0.217,0.039,0.327,0.062l-0.043,0.221
			c0.111,0.023,0.217,0.039,0.328,0.062l-0.043,0.224c0.111,0.022,0.216,0.038,0.326,0.062l-0.043,0.221
			c0.111,0.023,0.218,0.039,0.328,0.062l-0.043,0.223c0.111,0.023,0.216,0.039,0.326,0.062l-0.043,0.222
			c0.111,0.023,0.217,0.038,0.328,0.062l-0.045,0.223c0.111,0.023,0.216,0.039,0.328,0.062l-0.043,0.221
			c0.111,0.023,0.216,0.039,0.326,0.062l-0.043,0.222c0.111,0.023,0.216,0.039,0.328,0.062l-0.043,0.223
			c0.112,0.023,0.217,0.039,0.327,0.062L164.789,226c8.43,1.79,16.263,2.683,23.489,2.683c8.758,0,15.88-1.242,21.353-3.722
			c5.479-2.481,9.758-6,12.842-10.565c3.084-4.56,4.628-9.306,4.628-14.231c0-4.27-1.24-7.861-3.722-10.783
			C223.008,188.951,222.605,188.523,222.188,188.097z"/>
		<polygon fill="#2B2C2D" points="28.004,148.939 27.874,148.877 17.062,202.943 8.865,202.943 8.433,205.1 8.773,205.1 
			8.717,205.383 9.057,205.383 9,205.667 9.341,205.667 9.285,205.95 9.625,205.95 9.568,206.235 9.908,206.235 9.852,206.518 
			10.192,206.518 10.135,206.801 10.477,206.801 10.419,207.086 10.759,207.086 10.702,207.369 11.042,207.369 10.986,207.651 
			11.327,207.651 11.27,207.937 11.609,207.937 11.553,208.22 11.894,208.22 11.837,208.504 12.176,208.504 12.12,208.787 
			12.46,208.787 12.404,209.07 12.746,209.07 12.688,209.354 13.028,209.354 12.972,209.638 13.311,209.638 13.254,209.921 
			13.596,209.921 13.539,210.206 13.879,210.206 13.822,210.49 14.163,210.49 14.106,210.773 14.446,210.773 14.39,211.057 
			14.729,211.057 14.673,211.34 15.015,211.34 14.958,211.624 15.297,211.624 15.241,211.907 15.581,211.907 15.524,212.191 
			15.865,212.191 15.809,212.475 16.148,212.475 16.092,212.758 16.433,212.758 16.375,213.043 16.715,213.043 16.659,213.325 
			17,213.325 16.943,213.608 17.284,213.608 17.227,213.894 17.566,213.894 17.51,214.177 17.852,214.177 17.794,214.461 
			18.134,214.461 18.078,214.744 18.417,214.744 18.361,215.027 18.702,215.027 18.645,215.311 18.985,215.311 18.928,215.595 
			19.27,215.595 19.212,215.879 19.552,215.879 19.496,216.162 19.835,216.162 19.779,216.445 20.12,216.445 20.063,216.73 
			20.403,216.73 20.347,217.014 20.687,217.014 20.63,217.296 20.972,217.296 20.915,217.581 21.254,217.581 21.197,217.864 
			21.539,217.864 21.481,218.148 21.822,218.148 21.765,218.432 22.105,218.432 22.048,218.716 22.389,218.716 22.332,218.998 
			22.673,218.998 22.616,219.282 22.956,219.282 22.899,219.567 23.24,219.567 23.184,219.85 23.524,219.85 23.467,220.133 
			23.809,220.133 23.751,220.418 24.091,220.418 24.034,220.701 24.375,220.701 24.318,220.984 24.659,220.984 24.602,221.269 
			24.941,221.269 24.885,221.552 25.226,221.552 25.169,221.835 25.51,221.835 25.453,222.119 25.792,222.119 25.736,222.402 
			26.077,222.402 26.021,222.686 26.361,222.686 26.304,222.97 26.644,222.97 26.587,223.253 26.929,223.253 26.871,223.538 
			27.211,223.538 27.154,223.82 27.496,223.82 27.438,224.105 27.778,224.105 27.722,224.389 28.062,224.389 28.005,224.672 
			28.346,224.672 28.289,224.956 28.629,224.956 28.573,225.239 28.913,225.239 28.856,225.522 29.198,225.522 29.141,225.807 
			29.481,225.807 29.424,226.09 29.765,226.09 29.708,226.375 30.048,226.375 29.991,226.657 40.775,226.657 46.229,199.383 		"/>
		<polygon fill="#2B2C2D" points="56.497,174.253 56.619,174.206 61.888,147.77 61.112,145.646 60.932,145.646 60.828,145.362 
			60.648,145.362 60.545,145.078 60.364,145.078 60.26,144.795 60.081,144.795 59.977,144.511 59.797,144.511 59.693,144.228 
			59.514,144.228 59.41,143.944 59.229,143.944 59.125,143.66 58.946,143.66 58.843,143.377 58.662,143.377 58.559,143.094 
			58.378,143.094 58.275,142.809 58.095,142.809 57.992,142.525 57.811,142.525 57.707,142.241 57.528,142.241 57.424,141.958 
			57.244,141.958 57.14,141.675 56.961,141.675 56.857,141.391 56.677,141.391 56.573,141.107 56.394,141.107 56.29,140.824 
			56.109,140.824 56.006,140.54 55.826,140.54 55.723,140.255 55.542,140.255 55.439,139.972 55.259,139.972 55.155,139.689 
			54.976,139.689 54.872,139.406 54.691,139.406 54.587,139.123 54.408,139.123 54.304,138.838 54.123,138.838 54.02,138.554 
			53.84,138.554 53.736,138.271 53.557,138.271 53.454,137.987 53.273,137.987 53.169,137.703 52.989,137.703 52.886,137.42 
			52.705,137.42 52.601,137.137 52.422,137.137 52.318,136.853 52.138,136.853 52.034,136.567 51.855,136.567 51.751,136.284 
			51.571,136.284 51.467,136.001 51.288,136.001 51.184,135.719 51.003,135.719 50.899,135.434 50.72,135.434 50.617,135.15 
			50.437,135.15 50.333,134.866 50.152,134.866 50.049,134.583 49.87,134.583 49.766,134.3 49.585,134.3 49.481,134.016 
			49.302,134.016 49.198,133.732 49.019,133.732 48.915,133.449 48.734,133.449 48.63,133.164 48.45,133.164 48.347,132.882 
			48.167,132.882 48.062,132.599 47.883,132.599 47.78,132.313 47.6,132.313 47.497,132.03 47.316,132.03 47.213,131.746 
			47.033,131.746 46.929,131.463 46.749,131.463 46.645,131.179 46.465,131.179 46.361,130.896 46.182,130.896 46.078,130.612 
			45.898,130.612 45.794,130.328 45.614,130.328 45.51,130.045 45.33,130.045 45.227,129.762 45.047,129.762 44.943,129.477 
			44.763,129.477 44.66,129.193 44.479,129.193 44.376,128.909 44.196,128.909 44.092,128.626 43.913,128.626 43.809,128.343 
			43.628,128.343 43.524,128.059 43.345,128.059 43.241,127.775 43.061,127.775 42.958,127.491 42.777,127.491 42.674,127.208 
			42.494,127.208 42.391,126.925 42.21,126.925 42.106,126.64 41.926,126.64 41.823,126.357 41.643,126.357 41.539,126.074 
			41.359,126.074 41.255,125.789 41.076,125.789 40.972,125.506 40.792,125.506 40.689,125.223 40.509,125.223 40.405,124.94 
			40.225,124.94 40.121,124.654 39.94,124.654 39.837,124.371 39.657,124.371 39.554,124.088 38.185,124.088 		"/>
	</g>
</g>
</svg>
